<?xml version="1.0" encoding="UTF-8"?>
<!DOCTYPE svg PUBLIC "-//W3C//DTD SVG 1.1//EN" "http://www.w3.org/Graphics/SVG/1.1/DTD/svg11.dtd">
<!-- Creator: CorelDRAW -->
<?xml-stylesheet href="recycle1.css" type="text/css"?>
<svg xmlns="http://www.w3.org/2000/svg" xml:space="preserve" width="162.56mm" height="91.44mm" version="1.1" style="shape-rendering:geometricPrecision; text-rendering:geometricPrecision; image-rendering:optimizeQuality; fill-rule:evenodd; clip-rule:evenodd"
viewBox="0 0 16256 9144"
 xmlns:xlink="http://www.w3.org/1999/xlink"
 xmlns:xodm="http://www.corel.com/coreldraw/odm/2003">
 <g id="Camada_x0020_1">
  <metadata id="CorelCorpID_0Corel-Layer"/>
  <g id="_2327349062064">
   <path class="fil0" d="M9855.6 5401.94c-1326.18,-505.21 -631.58,-2083.96 -1789.33,-2841.81 -601.96,-394 -1010.42,-505.18 -2926.02,-463.09 -1915.57,42.06 -1873.48,-1768.27 -3578.54,-2041.87 -705.99,-113.32 -1191.38,-2.21 -1502.44,139.47l0 8907.03 10995.33 0c538.99,-1636.06 -363.44,-3381.41 -1199,-3699.73z"/>
   <path class="fil1" d="M59.27 9101.67l0 0 0 -7359.38c70.29,-6.5 142.16,-9.97 215.54,-9.97 277.18,0 575.37,49.79 886.96,175.27 1064.3,428.67 1837.81,930 2874.78,1044.77 80.33,73.89 191.48,158.83 294.47,178l105.4 -153.97c14.5,0.17 29.06,0.23 43.67,0.23 16.55,0 33.28,-0.1 49.98,-0.29 -23.8,302.06 -72.93,955.04 -66.18,1123.46 0,0 8.25,3.38 24.13,8.88 -24.73,69.22 -76.54,225.45 -123.52,438.9 -551.31,-251.56 -1101.17,-489.8 -1792.37,-555.98 -176.31,-16.87 -345.69,-24.57 -507.8,-24.57 -895.68,0 -1572.09,234.7 -2005.06,450.39l0 4684.26zm9829.42 -3686.37c-0.72,-0.32 -1.42,-0.6 -2.17,-0.92 0.72,0.29 1.45,0.6 2.17,0.92zm-2.27 -0.98c-4.36,-1.83 -8.65,-3.6 -13.04,-5.36 4.36,1.73 8.72,3.53 13.04,5.36zm-13.2 -5.46c-0.6,-0.22 -1.14,-0.44 -1.74,-0.7 0.57,0.26 1.17,0.48 1.74,0.7zm-2.36 -0.95c-0.58,-0.22 -0.99,-0.37 -1.55,-0.6 0.5,0.19 1.04,0.41 1.55,0.6zm-2.34 -0.91c-0.51,-0.23 -0.95,-0.39 -1.46,-0.57 0.47,0.16 0.99,0.38 1.46,0.57zm-2.37 -0.95c-0.44,-0.19 -0.92,-0.35 -1.36,-0.54 0.44,0.19 0.92,0.35 1.36,0.54zm-2.34 -0.91c-0.44,-0.19 -0.85,-0.35 -1.3,-0.51 0.45,0.16 0.86,0.32 1.3,0.51zm-2.43 -0.95c-0.41,-0.16 -0.76,-0.29 -1.17,-0.48 0.41,0.16 0.79,0.32 1.17,0.48zm-2.46 -0.95c-0.32,-0.13 -0.69,-0.29 -1.02,-0.41 0.35,0.16 0.68,0.25 1.02,0.41zm-6.66 -2.56c-0.07,-0.03 -0.13,-0.06 -0.23,-0.09 0.1,0.03 0.16,0.06 0.23,0.09zm-3.58 -1.35c-0.02,-0.04 -0.06,-0.04 -0.08,-0.07l0.08 0.07zm-2904.89 -151c-343.83,0 -653.14,-35.84 -938.65,-95.46 -0.26,-15.09 -0.57,-29.83 -1.01,-44.33 -17.46,-593.18 -143.35,-916.01 -195.96,-1026.27 21.75,-7.42 33.56,-11.97 33.56,-11.97 7.93,-197.66 -88.94,-1072.66 -109.66,-1256.81 6.16,-1.32 12.31,-2.65 18.47,-3.94l198.9 268.45c10.38,-1.06 20.74,-2.61 31.01,-4.57 63.97,110.89 158.19,264.34 210.04,302.3 6.35,4.68 15.09,6.85 25.95,6.85 94.26,0 347.91,-165.76 577.59,-333.27 -68.9,137.82 -116.17,289.2 -106.54,437.06 29.3,448.88 266.68,752.99 720.52,752.99 32.9,0 66.92,-1.58 102.09,-4.84 2.96,-0.27 5.94,-0.56 8.9,-0.85 303.83,-30.4 559.14,-231.29 558.89,-667.13 -0.03,-15.88 -0.37,-32.08 -1.07,-48.59 -0.03,-0.82 -0.07,-1.61 -0.1,-2.44 0,-0.25 -0.03,-0.47 -0.03,-0.75 -0.03,-0.76 -0.06,-1.52 -0.1,-2.31 -0.02,-0.22 -0.02,-0.47 -0.06,-0.69 0,-0.6 -0.03,-1.13 -0.06,-1.73 -0.03,-0.32 -0.03,-0.64 -0.06,-0.95 -0.03,-0.7 -0.07,-1.42 -0.09,-2.09 -0.04,-0.35 -0.04,-0.72 -0.07,-1.07 -0.03,-0.47 -0.03,-0.91 -0.06,-1.39 -0.03,-0.35 -0.03,-0.7 -0.07,-1.04 -0.03,-0.67 -0.06,-1.29 -0.09,-1.99 -0.04,-0.44 -0.06,-0.83 -0.1,-1.26 0,-0.38 -0.03,-0.7 -0.06,-1.08 -0.03,-0.79 -0.09,-1.55 -0.13,-2.33 -0.02,-0.25 -0.02,-0.51 -0.06,-0.76 -0.03,-0.51 -0.06,-1.02 -0.1,-1.52 0,-0.22 -0.02,-0.47 -0.02,-0.7 -0.07,-0.87 -0.13,-1.82 -0.19,-2.71 0,-0.16 0,-0.35 -0.04,-0.51 -0.03,-0.53 -0.06,-1.06 -0.09,-1.6 0,-0.13 -0.03,-0.26 -0.03,-0.41 -0.07,-1.01 -0.13,-2.09 -0.23,-3.1 0,-0.1 0,-0.19 0,-0.28 -0.12,-1.74 -0.25,-3.54 -0.4,-5.3l0 0c-7.93,-105.5 -30.09,-205.29 -62.46,-298.11 -0.03,-0.1 -0.03,-0.1 -0.06,-0.16 -0.13,-0.44 -0.29,-0.89 -0.45,-1.33 -0.09,-0.22 -0.19,-0.5 -0.28,-0.76 -0.19,-0.56 -0.38,-1.16 -0.6,-1.74 -0.13,-0.41 -0.28,-0.85 -0.44,-1.22 -0.1,-0.29 -0.19,-0.6 -0.29,-0.86 -0.25,-0.69 -0.47,-1.33 -0.72,-1.99 -0.03,-0.09 -0.03,-0.15 -0.09,-0.25 -0.26,-0.72 -0.48,-1.36 -0.74,-2.05 -0.02,-0.12 -0.06,-0.22 -0.12,-0.35 -113.99,-317.59 -347.08,-552.54 -537.67,-653.99 163.21,-16.05 322.7,-26.78 478.62,-31.2 38.5,23.56 77.33,48.25 116.99,74.2 897.29,587.35 681.91,1667.77 1156.97,2359.37 -261.08,27.31 -540.92,74.29 -841.18,145.66 -544.37,129.46 -1017.31,183.14 -1438.27,183.17zm-596.84 -2283.05l-31.46 -81.37c14.97,-13.96 23.28,-22.67 23.28,-22.67 0,0 -27.29,-67.32 -66.5,-158.9 237.64,-46.44 468.99,-87.77 693.97,-121.65l-619.29 384.59zm783.58 -386.55c-6.13,-6.16 -12.86,-12.44 -20.28,-18.82 14.5,-1.99 29.02,-3.94 43.42,-5.87 -6.88,7.26 -14.65,15.51 -23.14,24.69z"/>
   <path class="fil1" d="M11120.9 8871.39c0,-0.23 0,-0.54 0,-0.8 0,0.23 0,0.61 0,0.8zm1.27 -4.8c0,-0.16 0,-0.35 0,-0.51 0,0.1 0,0.38 0,0.51zm0.94 -5.12c0.32,-0.15 0.32,-0.25 0.32,-0.41 0,0.1 0,0.32 -0.32,0.41zm1.27 -4.26c0,-0.57 0.31,-1.08 0.31,-1.68 0,0.6 -0.31,1.08 -0.31,1.68zm0.95 -4.2c0,-0.67 0.31,-1.32 0.62,-1.99 -0.31,0.69 -0.31,1.29 -0.62,1.99zm0.94 -4.26c0.32,-1.51 0.95,-3.13 1.27,-4.65 -0.32,1.52 -0.95,3.14 -1.27,4.65zm1.58 -5.72c0,-0.98 0.31,-1.99 0.63,-3 -0.32,1.01 -0.63,2.02 -0.63,3zm0.95 -3.97c0,-1.08 0.31,-2.15 0.63,-3.23 -0.32,1.11 -0.63,2.12 -0.63,3.23zm0.63 -3.5c122.2,-518.26 109.25,-1039.1 8.21,-1514.35 0,-0.5 -0.32,-1.01 -0.32,-1.52 0,-0.47 -0.31,-0.97 -0.31,-1.45 -197.98,-929.11 -731.93,-1683.58 -1248.32,-1902.94 650.27,276.29 1328.84,1401.59 1328.52,2655.61 0,251.63 -27.15,508.44 -87.78,764.65z"/>
   <path class="fil2" d="M9886.52 5414.38c-0.04,-0.02 -0.04,-0.02 -0.1,-0.06l0.1 0.06z"/>
   <path class="fil2" d="M9873.38 5408.96c-0.03,-0.04 -0.13,-0.07 -0.16,-0.1 0.03,0.03 0.13,0.06 0.16,0.1z"/>
   <path class="fil2" d="M9871.48 5408.16c-0.19,-0.06 -0.44,-0.15 -0.62,-0.25 0.18,0.1 0.43,0.19 0.62,0.25z"/>
   <path class="fil2" d="M9869.31 5407.31c-0.29,-0.12 -0.48,-0.19 -0.79,-0.31 0.21,0.09 0.56,0.22 0.79,0.31z"/>
   <path class="fil2" d="M9867.06 5406.43c-0.28,-0.13 -0.6,-0.26 -0.91,-0.38 0.28,0.12 0.66,0.25 0.91,0.38z"/>
   <path class="fil2" d="M9864.79 5405.51c-0.32,-0.12 -0.67,-0.25 -0.98,-0.37 0.31,0.12 0.66,0.25 0.98,0.37z"/>
   <path class="fil2" d="M9862.51 5404.63c-0.37,-0.16 -0.75,-0.32 -1.13,-0.44 0.38,0.15 0.76,0.28 1.13,0.44z"/>
   <path class="fil2" d="M9860.21 5403.71c-0.41,-0.16 -0.88,-0.31 -1.29,-0.47 0.41,0.16 0.88,0.31 1.29,0.47z"/>
   <path class="fil2" d="M9857.9 5402.83c-0.75,-0.29 -1.54,-0.57 -2.3,-0.89 0.79,0.32 1.52,0.6 2.3,0.89z"/>
   <path class="fil2" d="M9855.6 5401.94c-1.13,-0.4 -2.21,-0.81 -3.34,-1.26 1.1,0.41 2.23,0.86 3.34,1.26z"/>
   <path class="fil2" d="M9852.03 5400.59c-1.13,-0.41 -2.21,-0.86 -3.35,-1.26 1.14,0.4 2.25,0.85 3.35,1.26z"/>
   <path class="fil2" d="M9848.6 5399.26c-294.45,-113.61 -488.55,-280.58 -625.36,-479.76 0.09,0 0.16,0 0.25,-0.03 136.81,199.18 330.69,366.18 625.11,479.79z"/>
   <path class="fil3" d="M2906.97 2524.61l-55.26 11.84c0,0 98.67,139.47 199.33,132.24 100.64,-7.23 146.04,-47.37 146.04,-47.37l-9.88 -110.51c0,0 -1.96,-37.51 -19.74,-49.35 -17.74,-11.84 -55.92,-117.08 -55.92,-117.08l-101.96 91.44 -102.61 88.79z"/>
   <path class="fil4" d="M3116.81 2381.22c0,-0.03 -23.56,75.57 -68.42,123.66 -51.41,55.16 -128.64,82.15 -194.7,52.64 -24.5,-10.93 -65.8,-84.18 -50.01,-126.32 41.52,-110.66 131.57,-186.82 131.57,-186.82 0,0 -186.8,-228.89 -163.12,-265.74 23.69,-36.85 165.74,73.66 239.44,165.77 73.67,92.07 115.79,144.7 115.79,144.7 0,0 18.41,49.99 -10.55,92.11z"/>
   <path class="fil5" d="M4710.66 7639.3c-16.86,-40.63 -100,-36.25 -156.36,-17.36 -34.39,11.52 -85.2,153.08 -85.2,153.08 -27.37,59.14 -99.97,116.35 -173.15,155.06 5.62,26.37 15.47,65.9 18.47,73.82 19.16,50.59 50.23,31.08 55.6,83.46 157.22,-11.78 337.13,-31.01 347.34,-57.85 18.21,-48.02 10.13,-349.54 -6.7,-390.21z"/>
   <path class="fil3" d="M4581.99 7514.92l29.53 285.42 287.87 -14.78 22.13 -302.65c0,0 -305.08,-17.21 -339.53,32.01z"/>
   <path class="fil6" d="M4301.47 7963.33c1.17,-9.16 169.78,-53.51 217.77,-173.47 48.01,-119.96 49.83,-164.26 134.71,-167.92 84.88,-3.7 114.4,105.18 79.35,197.44 -35.05,92.26 -134.74,276.82 -376.45,273.1 0,0 -70.12,-12.92 -55.38,-129.15z"/>
   <path class="fil7" d="M4685.34 7776.91c0,0 34.38,-137.3 92.23,-145.75 58.86,-8.62 163.02,-14.75 179.89,25.92 16.82,40.67 24.91,342.19 6.69,390.24 -18.22,48.03 -582.35,71.9 -582.35,71.9l12.98 -112.57c0,0 253.65,-89.45 290.56,-229.74z"/>
   <path class="fil8" d="M4445.42 8064.79c0,0 -53.52,-177.15 -166.09,-160.53 -112.56,16.6 -204.67,47.83 -208.49,162.39 -3.69,110.73 95.93,149.48 457.63,97.82 347.62,-49.64 442.88,-55.39 448.44,-83.04 5.52,-27.66 -7.39,-70.17 -7.39,-70.17 0,0 -177.17,31.39 -298.96,57.25 -121.79,25.83 -210.36,38.75 -210.36,38.75l-14.78 -42.47z"/>
   <path class="fil8" d="M4709.3 7782.22c0,0 -186.67,-82.01 -214.59,-66.28 -27.91,15.69 6.67,45.69 101.21,74.99 101.19,31.42 106.4,17.43 113.38,-8.71z"/>
   <path class="fil8" d="M4643.12 7881.2c0,0 -179.38,-93.36 -208.06,-79.63 -28.63,13.76 3.67,45.66 95.27,80.87 98.08,37.67 104.2,24.22 112.79,-1.24z"/>
   <path class="fil8" d="M4572.55 7956.73c0,0 -175.5,-105.96 -205.37,-93.93 -29.84,12.05 0.73,46.48 91.19,87.94 96.81,44.46 103.82,31.23 114.18,5.99z"/>
   <path class="fil8" d="M4753.61 7797.24c0,17.31 -14.06,31.39 -31.37,31.39 -17.32,0 -31.38,-14.08 -31.38,-31.39 0,-17.33 14.06,-31.35 31.38,-31.35 17.31,0 31.37,14.02 31.37,31.35z"/>
   <path class="fil8" d="M4685.34 7898.73c0,17.33 -14.05,31.35 -31.39,31.35 -17.34,0 -31.35,-14.02 -31.35,-31.35 0,-17.31 14.01,-31.36 31.35,-31.36 17.34,0 31.39,14.05 31.39,31.36z"/>
   <path class="fil8" d="M4602.29 7981.8c0,17.28 -14.05,31.36 -31.38,31.36 -17.3,0 -31.36,-14.08 -31.36,-31.36 0,-17.36 14.06,-31.41 31.36,-31.41 17.33,0 31.38,14.05 31.38,31.41z"/>
   <path class="fil8" d="M4945.52 7824.9c0,42.82 -34.7,77.52 -77.52,77.52 -42.82,0 -77.48,-34.7 -77.48,-77.52 0,-42.81 34.66,-77.48 77.48,-77.48 42.82,0 77.52,34.67 77.52,77.48z"/>
   <path class="fil5" d="M5649.18 7580.23c16.87,-40.65 99.97,-36.23 156.34,-17.38 34.38,11.5 85.21,153.12 85.21,153.12 27.35,59.14 99.95,116.39 173.14,155.1 -5.59,26.3 -15.44,65.89 -18.44,73.82 -19.2,50.52 -50.27,31.01 -55.6,83.46 -157.22,-11.82 -337.21,-31.07 -347.34,-57.89 -18.25,-48.02 -10.17,-349.57 6.69,-390.23z"/>
   <path class="fil3" d="M5777.86 7455.85l-29.53 285.41 -287.9 -14.74 -22.14 -302.62c0,0 305.08,-17.28 339.57,31.95z"/>
   <path class="fil6" d="M6058.31 7904.26c-1.17,-9.13 -169.75,-53.53 -217.72,-173.48 -47.99,-119.92 -49.82,-164.19 -134.73,-167.93 -84.87,-3.66 -114.4,105.22 -79.35,197.48 35.08,92.26 134.7,276.8 376.45,273.1 0,0 70.12,-12.91 55.35,-129.17z"/>
   <path class="fil7" d="M5674.51 7717.9c0,0 -34.39,-137.3 -92.27,-145.79 -58.82,-8.66 -163.02,-14.74 -179.85,25.92 -16.86,40.67 -24.94,342.19 -6.73,390.22 18.22,48.08 582.35,71.93 582.35,71.93l-12.94 -112.6c0,0 -253.65,-89.45 -290.56,-229.68z"/>
   <path class="fil8" d="M5914.39 8005.74c0,0 53.52,-177.11 166.09,-160.53 112.56,16.64 204.7,47.81 208.52,162.39 3.7,110.71 -95.96,149.45 -457.63,97.82 -347.61,-49.67 -442.91,-55.35 -448.43,-83.04 -5.53,-27.7 7.39,-70.13 7.39,-70.13 0,0 177.14,31.35 298.93,57.19 121.78,25.85 210.38,38.77 210.38,38.77l14.75 -42.47z"/>
   <path class="fil8" d="M5650.51 7723.13c0,0 186.67,-81.97 214.62,-66.24 27.91,15.73 -6.69,45.69 -101.23,75.02 -101.17,31.42 -106.41,17.43 -113.39,-8.78z"/>
   <path class="fil8" d="M5716.69 7822.15c0,0 179.39,-93.36 208.06,-79.66 28.64,13.77 -3.64,45.7 -95.26,80.9 -98.08,37.64 -104.18,24.18 -112.8,-1.24z"/>
   <path class="fil8" d="M5787.27 7897.75c0,0 175.49,-106 205.37,-93.97 29.87,12.03 -0.74,46.42 -91.16,87.91 -96.81,44.46 -103.86,31.19 -114.21,6.06z"/>
   <path class="fil8" d="M5606.24 7738.2c0,17.33 14.02,31.35 31.35,31.35 17.34,0 31.39,-14.02 31.39,-31.35 0,-17.34 -14.05,-31.38 -31.39,-31.38 -17.33,0 -31.35,14.04 -31.35,31.38z"/>
   <path class="fil8" d="M5674.51 7839.68c0,17.34 14.05,31.39 31.35,31.39 17.34,0 31.39,-14.05 31.39,-31.39 0,-17.33 -14.05,-31.38 -31.39,-31.38 -17.3,0 -31.35,14.05 -31.35,31.38z"/>
   <path class="fil8" d="M5757.55 7922.7c0,17.33 14.03,31.41 31.35,31.41 17.34,0 31.36,-14.08 31.36,-31.41 0,-17.31 -14.02,-31.36 -31.36,-31.36 -17.32,0 -31.35,14.05 -31.35,31.36z"/>
   <path class="fil8" d="M5414.32 7765.89c0,42.78 34.68,77.49 77.49,77.49 42.82,0 77.52,-34.71 77.52,-77.49 0,-42.85 -34.7,-77.52 -77.52,-77.52 -42.81,0 -77.49,34.67 -77.49,77.52z"/>
   <path class="fil9" d="M4502.73 4069.1c0,0 -348.85,877.08 -193.84,1836.63 155,959.62 239.88,1585.17 273.1,1609.19 33.21,23.97 310.01,27.07 339.53,-32.01 54.66,-109.25 125.51,-1737.04 177.14,-2453.08 0,0 51.53,9.06 108.28,0 0,0 137.79,2288.25 216.54,2445.69 0,0 206.67,78.75 369.06,-4.93 0,0 233.72,-1609.13 211.59,-2362.05 -22.14,-752.86 -218.98,-1070.26 -218.98,-1070.26l-1282.42 30.82z"/>
   <path class="fil10" d="M5069.04 4309.93c0,0 -7.58,429.52 20.15,471.11 27.76,41.62 133.09,-60.94 133.09,-130.28 0,-69.34 4.04,-339.19 4.04,-339.19l-87.21 -51.72 -70.07 50.08z"/>
   <path class="fil10" d="M4378.01 4488.46c30.31,43.07 68.68,68.96 110.48,68.96 97.86,0 177.18,-140.98 177.18,-314.94 0,-65.45 -11.28,-126.26 -30.51,-176.59l-132.46 3.21c0,0 -63.78,160.69 -124.69,419.36z"/>
   <path class="fil10" d="M5945.05 4534.88c-65.42,-344.05 -159.9,-496.6 -159.9,-496.6l-51.53 1.24c-30.51,56.55 -49.36,133.18 -49.36,217.71 0,173.95 79.36,314.94 177.18,314.94 30.24,0 58.66,-13.52 83.61,-37.29z"/>
   <path class="fil5" d="M5845.9 4171.32l-0.16 -0.39c-29.9,-78.5 -53.61,-120.81 -59.26,-130.46l-0.32 -0.54 -1.01 -1.65 -1282.45 30.82c0,0 -18,45.38 -43.85,126.18 222.79,74.71 839.11,233.72 1387.05,-23.96z"/>
   <path class="fil3" d="M4299.19 3100.14c0,0 -241.2,330.53 -332.3,379.6 -127.97,68.9 -948.09,-804.86 -941.52,-818.94 18.44,-39.48 55.73,-81.6 198.46,-145.57l644.64 536.38 103.32 -185.95 167.31 -94.5 160.09 328.98z"/>
   <path class="fil3" d="M5913.67 2954.01c0,0 193.33,360.63 276.82,421.72 117.23,85.88 1051.41,-663.97 1037.26,-670.48 -46.7,-21.37 -35.87,-99.37 -168.36,-182.41l-712.44 442.44 -76.7 -198.42 -152.71 -116.67 -203.87 303.82z"/>
   <path class="fil11" d="M4766.36 374.84c0,0 -414.78,-15.66 -438.27,461.74 -23.46,477.42 78.28,806.12 -117.4,1072.21 0,0 921.76,479.92 1813.96,26.02 0,0 -178.31,-229.5 -154.82,-628.64 23.5,-399.15 70.42,-907.83 -430.4,-1048.7 -500.89,-140.89 -673.07,117.37 -673.07,117.37z"/>
   <path class="fil7" d="M5728.18 2779.39l221.26 298.61c203.34,-21.27 389.33,-216.76 389.33,-216.76 0,0 -207.96,-513.2 -300.83,-632.69 -92.92,-119.41 -707.89,-300.82 -707.89,-300.82l-168.14 -6.94 0 -1.9 -13.26 0.95 -13.26 -0.95 0 1.9 -283.17 20.21c0,0 -473.42,212.38 -566.32,331.82 -92.9,119.46 -363.3,562.27 -363.3,562.27 0,0 218.18,259.87 408.42,295.27l211.5 -308.94c0,0 -87.47,1057.16 -78.63,1278.37 0,0 265.68,108.28 684,103.35 373.98,-9.81 693.84,-132.84 693.84,-132.84 8.88,-221.21 -113.55,-1290.91 -113.55,-1290.91z"/>
   <path class="fil12" d="M6051.96 2248.23c-0.03,-0.04 -0.06,-0.06 -0.09,-0.1 0.03,0.04 0.06,0.06 0.09,0.1zm-0.28 -0.41c-0.09,-0.13 -0.13,-0.23 -0.22,-0.32 0.06,0.09 0.15,0.19 0.22,0.32zm-0.32 -0.48c-4.61,-6.88 -8.97,-13 -13.16,-18.4 4.17,5.36 8.59,11.55 13.16,18.4z"/>
   <path class="fil13" d="M5379.72 2528.52c-430.13,0 -818.07,-98.13 -1093.94,-255.51l0.12 -0.19c92.9,-119.44 566.32,-331.82 566.32,-331.82l283.17 -20.21 0 -1.9 13.26 0.95 13.26 -0.95 0 1.9 168.14 6.94c0,0 614.97,181.41 707.89,300.82 0.07,0.13 0.17,0.26 0.26,0.39 4.19,5.4 8.55,11.52 13.16,18.4 0.04,0.06 0.06,0.1 0.1,0.16 0.09,0.09 0.13,0.19 0.22,0.32 0.07,0.09 0.13,0.18 0.19,0.31 0.03,0.04 0.06,0.06 0.09,0.1 25.73,38.71 57.7,99.27 90.81,167.47 -224.15,71.62 -484.71,112.82 -763.05,112.82z"/>
   <path class="fil4" d="M5161.88 1920.75l0 -1.86 -13.27 0.95 -13.22 -0.95 0 1.86 -283.17 20.25c0,0 -85.48,38.36 -190.82,91.56 0,0 300.32,327.63 456.27,314.37 155.96,-13.29 348.4,-189.14 455.89,-340.41 -133.76,-46.36 -243.51,-78.79 -243.51,-78.79l-168.17 -6.98z"/>
   <polygon class="fil14" points="5390.17,1946.15 5394.21,1947.41 "/>
   <polygon class="fil14" points="5373.02,1940.84 5376.91,1942.04 "/>
   <polygon class="fil14" points="5409.69,1952.3 5414.17,1953.69 "/>
   <polygon class="fil14" points="5485.25,1976.68 5488.5,1977.79 "/>
   <polygon class="fil14" points="5336.77,1929.76 5338.22,1930.2 "/>
   <polygon class="fil14" points="5330.05,1927.73 5333.34,1928.71 "/>
   <polygon class="fil14" points="5512.78,1985.83 5515.78,1986.84 "/>
   <polygon class="fil14" points="5344.86,1932.18 5347.44,1932.98 "/>
   <polygon class="fil14" points="4799.33,1965.41 4799.93,1965.15 "/>
   <polygon class="fil14" points="4762.03,1983.12 4763.52,1982.42 "/>
   <polygon class="fil14" points="4845.23,1944.15 4846.76,1943.49 "/>
   <polygon class="fil14" points="4813.92,1958.59 4815.49,1957.86 "/>
   <polygon class="fil14" points="4849.69,1942.14 4852.22,1941 "/>
   <polygon class="fil14" points="4826.7,1952.68 4828.12,1952.02 "/>
   <path class="fil5" d="M5573.56 2006.54c-107.49,151.25 -299.59,348.29 -455.89,340.39 -222.57,-11.27 -455.73,-313.77 -456.24,-314.33 -30.85,15.6 -63.28,32.36 -95.89,49.92 56.23,84.28 333.59,387.15 565.4,371.68 265.45,-17.69 486.79,-322.17 539.24,-413.08 -32.8,-12.12 -65.36,-23.75 -96.62,-34.58z"/>
   <path class="fil4" d="M4852.22 1808.28c0,0 4.42,190.24 4.42,238.91 0,141.55 483.36,119.44 483.36,26.55 0,-70.82 -3.32,-270.98 -3.32,-270.98l-484.46 5.52z"/>
   <path class="fil15" d="M5338.73 1939.35c-0.94,-69.96 -2.05,-136.59 -2.05,-136.59l-484.46 5.52c0,0 0.5,21.6 1.16,51.89 32.11,41.61 161.8,123.93 485.35,79.18z"/>
   <path class="fil3" d="M5631.12 991.17c0,0 64.38,892.99 -509.25,892.99 -578.88,0 -553.15,-840.16 -553.15,-840.16 0,0 187.76,-25.33 345.79,-299.85 0,0 316.07,257.88 716.61,247.02z"/>
   <path class="fil3" d="M4568.72 1044c0,0 -171.77,-47.68 -171.77,129.45 0,177.18 132.25,265.68 227.16,221.38l-55.39 -350.83z"/>
   <path class="fil3" d="M5624.3 1010.62c0,0 192.23,-42.66 192.23,149.66 0,192.37 -146.76,279.32 -255.91,231.23l63.68 -380.89z"/>
   <path class="fil16" d="M59.27 9101.67l10995.33 0c207.13,-628.7 201.14,-1273.48 68.2,-1847.27l-11063.53 0 0 1847.27z"/>
   <path class="fil11" d="M4569.26 1023.6c0,0 -12.66,244.67 25.33,253.1 37.99,8.47 37.99,-291.09 37.99,-291.09l-63.32 37.99z"/>
   <path class="fil11" d="M5640.94 984.73c0,0 12.67,265.95 -25.32,275.08 -37.99,9.16 -37.99,-316.35 -37.99,-316.35l63.31 41.27z"/>
   <path class="fil7" d="M4542.52 2821.42c0,0 -207.93,314.12 -75.24,455.7 105.43,112.42 535.36,190.24 676.95,-265.45 0,0 194.63,384.9 566.28,287.59 313.51,-82.1 17.67,-519.87 17.67,-519.87l-1185.66 42.03z"/>
   <path class="fil17" d="M4728.34 3339.05c0,0 223.43,-66.38 415.89,-172.54 0,0 199.08,119.45 380.45,154.88 0,0 -207.93,53.08 -389.29,-66.4 0,0 -163.73,119.45 -407.05,84.06z"/>
   <path class="fil7" d="M4580.13 1401.24c0,0 3.31,102.87 -36.5,109.5 -39.82,6.64 -49.77,-119.44 -43.14,-132.74 13.29,-26.52 76.32,-13.26 79.64,23.24z"/>
   <path class="fil7" d="M5640.12 1397.92c0,0 -3.31,102.88 36.51,109.51 39.81,6.63 49.75,-119.48 43.13,-132.74 -13.26,-26.52 -76.32,-13.27 -79.64,23.23z"/>
   <path class="fil11" d="M4946.21 132c-191.28,33.25 -199.58,207.92 -199.58,207.92 -249.55,-66.53 -307.77,66.53 -307.77,66.53 158.03,-58.19 299.43,58.26 299.43,58.26l124.78 -16.64c-99.83,-83.17 83.14,-316.07 83.14,-316.07z"/>
   <path class="fil18" d="M4911.76 1251.38c1.61,23.27 -15.94,43.48 -39.21,45.06 -23.31,1.61 -43.48,-15.88 -45.09,-39.21l-5.87 -84.31c-1.61,-23.21 15.91,-43.39 39.15,-45.03 23.3,-1.65 43.54,15.94 45.15,39.21l5.87 84.28z"/>
   <path class="fil8" d="M4882.02 1210.71c1.14,16.93 -8.59,31.33 -21.88,32.3l-62.26 4.3c-13.21,0.98 -24.89,-12.07 -26.12,-28.89 -1.1,-16.95 8.65,-31.39 21.88,-32.33l62.27 -4.3c13.26,-0.98 24.95,12.03 26.11,28.92z"/>
   <path class="fil18" d="M5434.59 1220.34c1.62,23.27 -15.91,43.48 -39.21,45.12 -23.27,1.65 -43.52,-15.91 -45.13,-39.25l-5.9 -84.24c-1.54,-23.27 15.98,-43.54 39.28,-45.15 23.31,-1.61 43.42,15.95 45.09,39.25l5.87 84.27z"/>
   <path class="fil8" d="M5404.82 1179.67c1.17,16.8 -8.56,31.36 -21.85,32.3l-62.3 4.3c-13.16,0.91 -24.88,-11.99 -26.04,-28.92 -1.18,-16.96 8.61,-31.39 21.81,-32.24l62.3 -4.39c13.23,-0.94 24.88,12 26.08,28.95z"/>
   <path class="fil19" d="M4896.99 1535.15c16.96,115.38 120.11,200.16 238.49,191.89 118.35,-8.24 208.71,-106.51 209.54,-223.14l-448.03 31.25z"/>
   <path class="fil20" d="M5174.32 1631.24c-60.63,4.29 -113.65,32.4 -151.31,74.23 33.97,16.23 72.3,24.38 112.47,21.57 60.65,-4.27 113.86,-32.21 151.5,-74.08 -33.91,-16.35 -72.31,-24.47 -112.66,-21.72z"/>
   <path class="fil8" d="M5028.82 1624.86l203.85 -14.24c50.93,-3.6 66.56,-47.55 70.38,-103.76l-358.41 24.98c11.62,55.16 33.18,96.52 84.18,93.02z"/>
   <path class="fil21" d="M5251.56 1032.63c0,0 -88.96,18.81 -82.83,116.04 6.15,97.15 13.67,216.86 13.67,216.86 0,0 9.06,83.89 -63.88,88.54 -84.12,5.27 -77.13,-62.81 -77.13,-62.81 0,0 6.66,26.15 77.73,21.66 58.01,-3.63 27.7,-104.76 23.5,-172.02 -5.69,-89.77 -18.23,-200.22 108.94,-208.27z"/>
   <path class="fil21" d="M4439.52 1130.64c0,0 17.68,7.23 39.63,40.8 -5.97,14.55 -23.75,62.1 -21.95,103.75 0,0 15.47,-48.72 40.73,-69.53 11.88,25.16 23.87,58.2 34.29,102.18 0,0 24.82,-202.27 -92.7,-177.2z"/>
   <path class="fil21" d="M5776.37 1114.85c0,0 -17.65,7.23 -39.63,40.8 5.97,14.55 23.75,62.11 21.98,103.75 0,0 -15.47,-48.72 -40.73,-69.53 -11.87,25.17 -23.91,58.2 -34.29,102.18 0,0 -24.86,-202.27 92.67,-177.2z"/>
   <path class="fil3" d="M3011.57 2144.41c-73.7,-92.11 -215.75,-202.62 -239.44,-165.77 -23.68,36.85 163.12,265.74 163.12,265.74 0,0 84.22,130.25 163.15,63.15 8.63,-7.33 16.71,-15.54 24.35,-24.19 -12.28,-15.35 -50.96,-63.66 -111.18,-138.93z"/>
   <path class="fil3" d="M3253.67 2604.87l-29.84 -89.64c0,0 32.45,-91.91 0.88,-197.16 -31.58,-105.27 -65.78,-94.72 -115.79,-78.94 -37.7,11.91 -165.78,89.46 -139.47,134.2 26.31,44.74 136.85,13.14 147.36,7.89 10.55,-5.27 -57.87,134.2 36.85,192.08l100.01 31.57z"/>
   <path class="fil11" d="M7150.39 2402.79c-24.19,8.37 -242.15,-142.09 -260.06,-206.89 -17.93,-64.79 109.35,-20.14 141.84,-64.94 32.49,-44.85 75.78,-206.51 141.43,-157.44 65.64,49.1 73.41,369.49 73.41,369.49 0,0 -18.73,32.94 -96.62,59.78z"/>
   <path class="fil11" d="M7188.78 2517.03c-4.86,10.01 -531.45,506.79 -501.29,969.34 31.58,484.16 305.24,799.88 831.51,747.3 314.87,-31.51 577.68,-246.13 557.82,-715.72 -31.58,-747.3 -780.9,-1223.88 -888.04,-1000.92z"/>
   <path class="fil22" d="M6911.11 3222.4c-29.15,0 -56.81,-21.82 -43.19,-55.8 43.63,-108.93 105.55,-206.15 170.37,-303.47 10.3,-15.44 25.2,-21.85 39.95,-21.85 33.47,0 66.15,32.97 42.59,68.36 -59.77,89.68 -120.9,180.18 -161.19,280.68 -8.94,22.35 -29.08,32.08 -48.53,32.08z"/>
   <path class="fil22" d="M6867.18 3360.04c-61.03,0 -62.64,-94.76 -1.51,-94.76 61.03,0 62.62,94.76 1.51,94.76z"/>
   <path class="fil23" d="M7510.1 4234.52c2.96,-0.27 5.9,-0.56 8.9,-0.85 303.83,-30.4 559.14,-231.29 558.89,-667.13 0.25,435.84 -255.06,636.73 -558.89,667.13 -2.96,0.29 -5.94,0.58 -8.9,0.85zm566.62 -719.01c0,-0.21 -0.03,-0.53 -0.03,-0.75 0,0.28 0.03,0.5 0.03,0.75zm-0.13 -3.06c-0.02,-0.22 -0.02,-0.47 -0.06,-0.69 0.04,0.22 0.04,0.47 0.06,0.69zm-0.12 -2.42c-0.03,-0.32 -0.03,-0.64 -0.06,-0.95 0.03,0.31 0.03,0.63 0.06,0.95zm-0.15 -3.04c-0.04,-0.37 -0.04,-0.72 -0.07,-1.07 0.03,0.35 0.03,0.72 0.07,1.07zm-0.13 -2.46c-0.03,-0.35 -0.03,-0.66 -0.07,-1.04 0.04,0.34 0.04,0.69 0.07,1.04zm-0.16 -3.03c-0.04,-0.41 -0.06,-0.85 -0.1,-1.26 0.04,0.43 0.06,0.82 0.1,1.26zm-0.16 -2.34c-0.03,-0.76 -0.09,-1.55 -0.13,-2.33 0.04,0.78 0.1,1.54 0.13,2.33zm-0.19 -3.09c-0.03,-0.51 -0.06,-1.02 -0.1,-1.52 0.04,0.5 0.07,1.01 0.1,1.52zm-0.12 -2.22c-0.07,-0.91 -0.13,-1.79 -0.19,-2.71 0.06,0.89 0.12,1.84 0.19,2.71zm-0.23 -3.22c-0.03,-0.5 -0.06,-1.1 -0.09,-1.6 0.03,0.54 0.06,1.07 0.09,1.6zm-0.12 -2.01c-0.07,-1.01 -0.13,-2.06 -0.23,-3.1 0.1,1.01 0.16,2.09 0.23,3.1zm-0.23 -3.38c-0.12,-1.8 -0.25,-3.5 -0.4,-5.3 0.15,1.76 0.28,3.56 0.4,5.3zm-0.4 -5.3c-7.96,-105.44 -30.09,-205.29 -62.46,-298.11 32.37,92.82 54.53,192.61 62.46,298.11zm-62.52 -298.27c-0.13,-0.44 -0.29,-0.89 -0.45,-1.33 0.16,0.44 0.32,0.89 0.45,1.33zm-0.73 -2.09c-0.19,-0.6 -0.38,-1.14 -0.6,-1.74 0.22,0.58 0.41,1.18 0.6,1.74zm-1.04 -2.96c-0.1,-0.29 -0.19,-0.6 -0.29,-0.86 0.1,0.26 0.19,0.57 0.29,0.86zm-1.01 -2.85c-0.03,-0.06 -0.07,-0.19 -0.09,-0.25 0.06,0.1 0.06,0.16 0.09,0.25zm-0.83 -2.3c-0.02,-0.1 -0.09,-0.26 -0.12,-0.35 0.06,0.13 0.1,0.23 0.12,0.35z"/>
   <path class="fil24" d="M7409.06 4239.3c-66.16,0 -127.7,-6.48 -184.75,-18.85 526.2,-99.28 663.05,-481.47 663.05,-481.47 -94.72,94.76 -294.69,136.81 -294.69,136.81 0,0 178.94,-84.18 263.12,-473.63 84.21,-389.39 -368.36,-863.06 -368.36,-863.06l-4.42 -14.96c188.22,104.83 413.77,336.34 525.32,646.98 0.03,0.09 0.1,0.25 0.12,0.35 0.26,0.66 0.51,1.39 0.74,2.05 0.02,0.06 0.06,0.19 0.09,0.25 0.25,0.66 0.47,1.33 0.72,1.99 0.1,0.26 0.19,0.57 0.29,0.86 0.16,0.37 0.28,0.81 0.44,1.22 0.22,0.6 0.41,1.14 0.6,1.74 0.09,0.26 0.19,0.51 0.28,0.76 0.16,0.44 0.32,0.89 0.45,1.33 0.03,0.03 0.06,0.1 0.06,0.16 32.37,92.82 54.5,192.67 62.46,298.11l0 0c0.15,1.8 0.28,3.5 0.4,5.3 0,0.12 0,0.16 0,0.28 0.1,1.04 0.16,2.09 0.23,3.1 0,0.15 0.03,0.25 0.03,0.41 0.03,0.5 0.06,1.1 0.09,1.6 0.04,0.16 0.04,0.35 0.04,0.51 0.06,0.92 0.12,1.8 0.19,2.71 0,0.26 0.02,0.45 0.02,0.7 0.04,0.5 0.07,1.01 0.1,1.52 0.04,0.22 0.04,0.53 0.06,0.76 0.04,0.78 0.1,1.57 0.13,2.33 0.03,0.35 0.06,0.73 0.06,1.08 0.04,0.41 0.06,0.85 0.1,1.26 0.03,0.66 0.06,1.36 0.09,1.99 0.04,0.38 0.04,0.69 0.07,1.04 0.03,0.48 0.03,0.92 0.06,1.39 0.03,0.35 0.03,0.7 0.07,1.07 0.02,0.67 0.06,1.39 0.09,2.09 0.03,0.31 0.03,0.63 0.06,0.95 0.03,0.6 0.06,1.13 0.06,1.73 0.04,0.22 0.04,0.47 0.06,0.69 0.04,0.79 0.07,1.55 0.1,2.31 0,0.22 0.03,0.54 0.03,0.75 0.03,0.8 0.07,1.65 0.1,2.44 0.7,16.51 1.04,32.71 1.07,48.59 0.25,435.84 -255.06,636.73 -558.89,667.13 -3,0.29 -5.94,0.58 -8.9,0.85 -34.8,3.23 -68.49,4.78 -101.04,4.78z"/>
   <path class="fil4" d="M7147.99 2307.53c0,0 -59.21,98.67 3.95,181.56 63.14,82.88 116.13,145.87 189.45,138.14 74.99,-7.89 160.75,-68.3 173.66,-130.25 19.74,-94.73 -130.25,-292.07 -189.45,-299.97 -59.2,-7.89 -157.88,43.42 -177.61,110.52z"/>
   <path class="fil3" d="M7041.42 2552.23c0,0 -31.58,-122.35 0,-185.5 31.57,-63.15 59.2,-130.25 118.41,-138.14 59.2,-7.89 177.62,39.46 193.4,102.62 15.78,63.15 -78.94,86.83 -146.03,67.1 -67.11,-19.73 -15.79,-7.89 -15.79,-7.89 0,0 78.93,177.6 -102.63,228.92l-47.36 -67.11z"/>
   <path class="fil25" d="M7462.32 3350.73c51.98,-48.22 105.5,-94.29 161.71,-137.14 -66.19,-4.01 -123.97,0.76 -174.81,11.91 0.25,42.18 3.63,84.12 13.1,125.23z"/>
   <path class="fil25" d="M7229.3 3528.94c2.74,16.67 3.18,38.52 8.33,56.58 25.52,-27.95 50.9,-55.98 76.76,-83.58l-1.45 -3.82c-7.67,-42.13 -23.46,-81.24 -32.81,-122.86 -4.52,-20.11 -6.79,-40.32 -9.69,-60.53 -29.3,22.79 -53.87,48.72 -74.83,76.26 15.62,44.8 25.89,90.83 33.69,137.95z"/>
   <path class="fil25" d="M7191.15 3562.25c-7.26,-44.14 -15.41,-87.68 -27.31,-130.32 -107.01,183.62 -80.81,233.01 -82.26,311.31 28.11,-34.61 63.97,-64.1 94.64,-97.44 8.24,-8.97 16.51,-17.96 24.76,-27 -6.76,-18.18 -7.17,-40.6 -9.83,-56.55z"/>
   <path class="fil25" d="M7329.1 3384.32c11.31,32.05 15.95,52.82 26.66,66.75 20.55,-21 41.33,-41.71 62.39,-62.01 -14.4,-48.13 -19.36,-98.11 -20.06,-148.22 -32.51,10.45 -61.24,24.18 -87.45,39.82 5.65,34.85 6.94,70.98 18.46,103.66z"/>
   <path class="fil25" d="M7662.83 3358.84c6.19,-45.28 5.21,-83.24 3.34,-106.03 -47.83,35.58 -93.87,73.41 -138.35,113.13 44.89,-3.62 90.01,-4.61 135.01,-7.1z"/>
   <path class="fil25" d="M7431.82 3490.89c60.43,6.1 121.03,9.31 181.65,12.03 16.27,-33.03 27.48,-66.03 34.64,-97.03 -60.68,2.75 -121.49,3.78 -181.46,14.05 -22.61,21.6 -44.68,43.76 -66.5,66.28 8.81,1.86 19.14,3.41 31.67,4.67z"/>
   <path class="fil25" d="M7273.44 3632.12c72.36,11.12 144.68,19.71 217.14,26.15 42.28,-32.37 74.49,-68.48 98.62,-105.65 -75.54,-3.79 -150.85,-9.56 -225.77,-21.16 -30.94,33.1 -61.45,66.6 -92.01,100l2.02 0.66z"/>
   <path class="fil25" d="M7223.67 3675.48l-1.32 1.49c-31.74,34.45 -77.21,70.76 -110.42,111.39 124.15,-10.83 219.57,-39.34 293.24,-77.77 -63.59,-5.62 -125.76,-15.72 -181.5,-35.11z"/>
   <path class="fil26" d="M10493.81 5912.02c-59.36,4.61 -123.78,10.29 -169.25,47.71 -101.67,82.98 -168.92,169.63 -132.3,294.75 -170.19,-9.65 -314.43,39.54 -459.4,145.25 -210.38,153.44 -216.1,410.55 -214.04,649.01 -27.69,-3 -52.01,-21.35 -79.89,-26.58 -63.69,-11.97 -140.45,-0.54 -206.56,-3.8 -180.21,-8.99 -265.75,62.75 -363.95,208.97 -126.49,188.32 -187.94,482.04 -142.85,707.46 16.39,81.94 68.71,93.62 146.01,130.85 331.86,159.65 684.55,162.3 1047.62,132.99 298.64,-24.12 581.88,-14.17 879.95,10.65 134.19,11.14 273.76,25.6 413.95,32.2 45.79,-920.05 -284.8,-1788.98 -719.29,-2329.46z"/>
   <path class="fil27" d="M10813.99 6496.52c-101.67,82.98 -168.94,169.62 -132.3,294.76 -170.2,-9.67 -314.5,39.52 -459.43,145.24 -210.3,153.43 -215.98,410.55 -214.08,649.01 -27.79,-3 -51.94,-21.34 -79.83,-26.59 -63.69,-11.96 -140.45,-0.53 -206.57,-3.78 -180.2,-9.01 -265.74,62.73 -363.94,208.96 -75.52,112.47 -127.62,262.52 -147.9,413.14 229.75,45.94 467.16,40.89 709.26,21.37 298.64,-24.12 581.88,-14.17 879.95,10.65 134.19,11.14 273.76,25.6 413.95,32.2 31.89,-645.72 -121.25,-1266.05 -365.65,-1765.52 -11.99,5.56 -23.36,12.15 -33.46,20.56z"/>
   <path class="fil11" d="M11157.85 7426.04c-584.79,163.5 -444.59,712.47 -444.59,712.47 0,0 -252.61,-315.72 -631.51,-147.36 -307.61,136.82 -252.45,568.36 -252.45,568.36 -421,-21.02 -596.97,304.21 -576.45,542.16l1801.75 0c186.61,-566.82 199.87,-1146.48 103.25,-1675.63z"/>
   <path class="fil28" d="M11054.6 9101.67l0 0c0.31,-1.18 0.62,-2.34 0.95,-3.5 0.31,-0.33 0.31,-0.67 0.31,-0.96 0,-0.22 0.31,-0.47 0.31,-0.69 0.32,-0.63 0.32,-1.3 0.64,-1.92 0,-0.38 0.31,-0.76 0.31,-1.14 0.32,-0.82 0.63,-1.61 0.95,-2.4 0,-0.45 0,-0.81 0.31,-1.23 0,-0.42 0.32,-0.82 0.32,-1.27 -1.26,4.4 -2.84,8.75 -4.1,13.11z"/>
   <path class="fil23" d="M11055.86 9097.21c0,-0.02 0,-0.06 0,-0.09 0.31,-0.21 0.31,-0.38 0.31,-0.6 0,0.22 -0.31,0.47 -0.31,0.69z"/>
   <path class="fil29" d="M11055.55 9098.17c0.31,-0.35 0.31,-0.74 0.31,-1.05 0,0.03 0,0.07 0,0.09l0 0c0,0.29 0,0.63 -0.31,0.96zm1.26 -3.57c0,-0.38 0.31,-0.76 0.31,-1.14 0,0.38 -0.31,0.76 -0.31,1.14zm1.26 -3.54c0,-0.45 0,-0.81 0.31,-1.23 -0.31,0.42 -0.31,0.78 -0.31,1.23z"/>
   <path class="fil28" d="M11058.7 9088.29c0.32,-0.26 0.32,-0.49 0.32,-0.74 0.31,-0.46 0.31,-0.95 0.63,-1.41 0,-0.2 0,-0.42 0,-0.65 -0.32,0.93 -0.63,1.88 -0.95,2.8z"/>
   <path class="fil29" d="M11059.02 9087.55c0.31,-0.46 0.31,-0.91 0.63,-1.41 -0.32,0.46 -0.32,0.95 -0.63,1.41z"/>
   <path class="fil28" d="M11059.96 9084.55c0,-0.16 0.32,-0.37 0.32,-0.56 0,-0.42 0.31,-0.92 0.31,-1.33 0,-0.04 0,-0.1 0,-0.13 0,0.7 -0.31,1.36 -0.63,2.02z"/>
   <path class="fil29" d="M11060.28 9083.99c0,-0.44 0.31,-0.89 0.31,-1.33 0,0.41 -0.31,0.91 -0.31,1.33zm1.26 -3.8c0,-0.25 0,-0.47 0,-0.71 0,0.2 0,0.46 0,0.71z"/>
   <path class="fil24" d="M11054.6 9101.67l-690.88 0c-6,-95.3 -7.26,-425.61 254.81,-542.16 79.89,-35.46 154.1,-49.44 221.35,-49.44 145.88,0 259.86,65.52 330.28,120.96 -24.95,149.57 -60.62,299.39 -108.62,448.45 0,0.24 0,0.46 0,0.71 -0.31,0.79 -0.63,1.55 -0.95,2.34 0,0.03 0,0.09 0,0.13 0,0.44 -0.31,0.89 -0.31,1.33 0,0.19 -0.32,0.4 -0.32,0.56 0,0.32 0,0.64 -0.31,0.94 0,0.23 0,0.45 0,0.65 -0.32,0.5 -0.32,0.95 -0.63,1.41 0,0.25 0,0.48 -0.32,0.74 0,0.08 0,0.17 0,0.27 0,0.45 -0.32,0.85 -0.32,1.27 -0.31,0.42 -0.31,0.78 -0.31,1.23 -0.32,0.79 -0.63,1.58 -0.95,2.4 0,0.38 -0.31,0.76 -0.31,1.14 -0.32,0.62 -0.32,1.29 -0.64,1.92l0 0c0,0.22 0,0.39 -0.31,0.6 0,0.31 0,0.7 -0.31,1.05 -0.33,1.16 -0.64,2.32 -0.95,3.5l0 0z"/>
   <path class="fil11" d="M9564.44 8388.47c0,0 130.25,-224.98 15.79,-382.86 0,0 -163.78,179.61 -15.79,382.86z"/>
   <path class="fil11" d="M9534.86 8472.05c0,0 -130.25,-234.86 -420.37,-193.4 0,0 102.62,272.34 420.37,193.4z"/>
   <path class="fil11" d="M10578.12 7860.49c0,0 -13.58,-268.17 -292.4,-358.73 0,0 -27.78,289.7 292.4,358.73z"/>
   <path class="fil26" d="M10019.54 6136.08c0,0 130.41,-224.98 15.79,-382.86 0,0 -163.69,179.61 -15.79,382.86z"/>
   <path class="fil26" d="M9958.47 6145.96c0,0 -130.25,-234.86 -420.36,-193.4 0,0 102.62,272.34 420.36,193.4z"/>
   <path class="fil26" d="M9442.72 6840.63c0,0 -130.25,-234.86 -420.37,-193.4 0,0 102.63,272.34 420.37,193.4z"/>
   <path class="fil27" d="M7834.76 8227.96c0,130.83 -647.3,457.89 -2770.76,457.89 -2233.99,0 -2991.8,-311.28 -2991.8,-442.1 0,-130.78 1339.47,-236.81 2991.8,-236.81 1652.32,0 2770.76,90.24 2770.76,221.02z"/>
   <path class="fil27" d="M2929.98 8254.27c0,87.21 -386.43,157.89 -863.05,157.89 -476.64,0 -863.06,-70.68 -863.06,-157.89 0,-87.18 386.42,-157.88 863.06,-157.88 476.62,0 863.05,70.7 863.05,157.88z"/>
   <path class="fil30" d="M6776.94 6156.76l0 -71.99c0,-3.79 -0.63,-6.82 -1.16,-10.04 8.11,-2.02 14.36,-10.36 14.36,-20.85 0,-11.99 -7.95,-21.72 -17.77,-21.72l-165.78 0c-9.79,0 -17.75,9.73 -17.75,21.72 0,11.06 6.86,19.8 15.61,21.16 -0.51,3.13 -1.14,6.06 -1.14,9.73l0 74.77c-48.06,105.37 -254.66,645.94 -254.66,645.94 0,0 8.24,1261.36 8.24,1327.32 0,65.96 12.34,86.54 70.07,98.92 10.26,2.19 25.45,3.57 43.23,4.42l-0.33 0 1.49 0.04c10.99,0.54 22.92,0.82 35.55,0.91l0.99 0c12.97,0.13 26.52,0.1 40.22,-0.09l0.95 0c13.51,-0.16 26.99,-0.47 40.29,-0.82l2.68 -0.1c11.78,-0.31 23.18,-0.69 34.04,-1.1l4.23 -0.12 -0.22 0c25.33,-0.95 47.08,-1.94 60.69,-2.56 50.93,2.27 213.74,10.16 263.81,-0.58 57.73,-12.38 70.07,-32.96 70.07,-98.92 0,-65.96 8.24,-1327.32 8.24,-1327.32 0,0 -210.48,-550.71 -255.95,-648.72z"/>
   <path class="fil31" d="M6523.7 8237.19c-5.33,0 -10.6,-0.03 -15.81,-0.1l-0.99 0c-0.37,0 -0.72,0 -1.1,0 0.38,0 0.73,0 1.1,0l0.99 0c5.21,0.07 10.48,0.1 15.81,0.1 8.02,0 16.17,-0.06 24.41,-0.19l0.95 0c13.51,-0.16 26.99,-0.47 40.29,-0.82l2.68 -0.1c11.78,-0.31 23.18,-0.69 34.04,-1.1l4.23 -0.12 -4.23 0.12c-10.86,0.41 -22.26,0.79 -34.04,1.1l-2.68 0.1c-13.3,0.35 -26.78,0.66 -40.29,0.82l-0.95 0c-8.24,0.13 -16.39,0.19 -24.41,0.19zm106.38 -2.33l0 0c2.69,-0.1 5.34,-0.2 7.93,-0.33 0.03,0.04 0.06,0.04 0.09,0.04l-8.02 0.29z"/>
   <path class="fil32" d="M6523.7 8237.19c-5.33,0 -10.6,-0.03 -15.81,-0.1l-0.99 0c-0.37,0 -0.72,0 -1.1,0 -10.23,-0.09 -19.73,-0.41 -28.92,-0.76l7.22 -0.15 2.66 -0.1c11.81,-0.31 23.21,-0.69 34.04,-1.1l4.26 -0.12 -0.25 0c25.36,-0.95 47.08,-1.94 60.69,-2.56 12.15,0.53 30.72,1.38 52.51,2.23 -2.59,0.13 -5.24,0.23 -7.93,0.33l0 0 0.22 0 -4.23 0.12c-10.86,0.41 -22.26,0.79 -34.04,1.1l-2.68 0.1c-13.3,0.35 -26.78,0.66 -40.29,0.82l-0.95 0c-8.24,0.13 -16.39,0.19 -24.41,0.19z"/>
   <path class="fil32" d="M6859.76 8237.22c-19.39,0 -39.69,-0.35 -59.45,-0.82 20.3,-0.79 37.64,-2.24 49.01,-4.68 6.56,-1.41 12.56,-2.93 18,-4.61 1.38,3.58 3.21,6.92 5.36,10.05 -4.23,0.03 -8.56,0.06 -12.92,0.06z"/>
   <path class="fil32" d="M7032.52 6860.65c0,-0.32 0,-0.63 0,-0.92l-105.24 0c0.21,-34.57 0.34,-54.25 0.34,-54.25 0,0 -210.45,-550.71 -255.92,-648.72l0 -71.99c0,-3.79 -0.66,-6.82 -1.17,-10.04 8.12,-2.02 14.34,-10.36 14.34,-20.85 0,-11.99 -7.96,-21.72 -17.75,-21.72l105.25 0c9.82,0 17.77,9.73 17.77,21.72 0,10.49 -6.25,18.83 -14.36,20.85l0 0 0 0c0.53,3.22 1.16,6.25 1.16,10.04l0 71.99 0 0c45.47,98.01 255.95,648.72 255.95,648.72 0,0 -0.12,20.03 -0.35,55.14l-0.02 0.03z"/>
   <path class="fil33" d="M6862.36 7806.31l-232.66 0c0.51,-34.58 -2.05,-71.01 -7.79,-109.47 0,-0.07 -0.04,-0.23 -0.04,-0.29 -0.22,-1.51 -0.47,-3 -0.69,-4.51 -0.19,-1.14 -0.35,-2.25 -0.53,-3.38 -0.04,-0.19 -0.08,-0.42 -0.1,-0.64 -0.19,-1.07 -0.35,-2.14 -0.54,-3.25 -0.04,-0.19 -0.06,-0.38 -0.1,-0.56 -0.15,-1.18 -0.34,-2.31 -0.53,-3.45l0 0c-0.19,-1.14 -0.38,-2.3 -0.57,-3.44 -0.03,-0.16 -0.06,-0.32 -0.1,-0.47 -0.19,-1.17 -0.37,-2.25 -0.56,-3.38 -0.04,-0.16 -0.04,-0.32 -0.06,-0.48 -0.19,-1.13 -0.42,-2.33 -0.6,-3.47l0 -0.06c-0.23,-1.2 -0.42,-2.4 -0.64,-3.57 0,-0.09 0,-0.13 -0.03,-0.22 -0.18,-1.14 -0.41,-2.31 -0.6,-3.45 -0.03,-0.15 -0.06,-0.34 -0.09,-0.5 -0.23,-1.2 -0.42,-2.27 -0.6,-3.47 -0.03,-0.04 -0.03,-0.04 -0.03,-0.1 -0.22,-1.2 -0.45,-2.4 -0.64,-3.6 -0.03,-0.02 -0.03,-0.09 -0.03,-0.12 -0.22,-1.2 -0.44,-2.31 -0.66,-3.51 0,-0.15 -0.03,-0.25 -0.07,-0.38 -0.21,-1.2 -0.41,-2.37 -0.66,-3.57l0 -0.06c-0.47,-2.49 -0.91,-4.86 -1.39,-7.36 0,-0.09 -0.03,-0.09 -0.03,-0.19 -0.22,-1.2 -0.47,-2.46 -0.69,-3.66l-0.04 -0.03c-0.47,-2.49 -0.95,-4.93 -1.45,-7.42 0,-0.03 0,-0.09 -0.02,-0.13 -0.23,-1.2 -0.48,-2.46 -0.74,-3.66 0,-0.03 0,-0.06 0,-0.1 -0.5,-2.49 -1.01,-4.95 -1.51,-7.44l0 0c-0.29,-1.27 -0.54,-2.5 -0.79,-3.76l0 0c-0.79,-3.76 -1.58,-7.51 -2.4,-11.24l0 -0.03c-21.18,-98.21 -51.66,-196.03 -89.45,-291.83l0 -450.33 412.35 0c-0.19,29.68 -0.45,70.35 -0.77,118.97 -41.61,73.2 -66.55,166.5 -66.55,268.21l0 0 2.4 559.4z"/>
   <path class="fil34" d="M6926.51 6978.7c0.32,-48.62 0.58,-89.29 0.77,-118.97l105.24 0c0,0.29 0,0.6 0,0.92 -41.34,27.4 -77.59,68.04 -106.01,118.05z"/>
   <path class="fil33" d="M6432.23 7125.82c-25.74,-51.16 -53.39,-101.49 -82.47,-150.43 -0.33,-47.17 -0.58,-86.68 -0.76,-115.66l83.23 0 0 266.09z"/>
   <path class="fil35" d="M6514.93 6859.73l-82.7 0 0 -72.27c0,-22.8 18.53,-41.31 41.33,-41.31 22.86,0 41.37,18.51 41.37,41.31l0 72.27z"/>
   <path class="fil36" d="M6514.93 7310.06c-24.67,-62.45 -52.39,-123.96 -82.7,-184.24l0 -266.09 82.7 0 0 450.33z"/>
   <path class="fil37" d="M6152.24 1349.18l181.88 -334.14c0,0 -253.8,-482.26 278.18,-795.02 605.73,-356.1 1469.29,519.74 875.03,1139.85 -516.77,539.32 -972.37,-35.7 -972.37,-35.7l-362.72 25.01z"/>
   <path class="fil37" d="M1258.87 2554.11c0,0 11.81,-157.73 -36.15,-179.42 -47.93,-21.66 -135.97,14.72 -137.74,42.06 -1.73,27.41 153.01,134.38 173.89,137.36z"/>
   <path class="fil37" d="M1275.23 2551.1c0,0 156.52,-7.45 170.22,43.29 20.9,77.4 -96.62,81.94 -96.62,81.94 -28.58,-8.34 -73.6,-125.23 -73.6,-125.23z"/>
   <path class="fil11" d="M1279.04 2479.39c0,0 -153.17,105.75 -113.86,172.94 39.35,67.23 136.53,-48.56 154.38,-99.17 17.8,-50.62 35.93,-118.13 -40.52,-73.77z"/>
   <path class="fil38" d="M7238.14 6837.12l0 -320.55c8.81,-1.93 15.53,-9.41 15.53,-18.76 0,-10.86 -8.81,-19.64 -19.67,-19.64l-152.92 0c-10.83,0 -19.61,8.78 -19.61,19.64 0,9.35 6.7,16.83 15.47,18.76l0 320.55c-125.13,50.33 -216.98,214.66 -216.98,409.79l4.13 963.03c0,27.4 23.53,49.6 52.57,49.6l481.78 0c29.02,0 52.55,-22.2 52.55,-49.6l4.14 -963.03c0,-195.13 -91.83,-359.46 -216.99,-409.79z"/>
   <polygon class="fil39" points="6859.96,7246.91 6862.38,7813.19 7452.69,7813.19 7455.13,7246.91 7454.9,7238.64 6860.21,7238.64 "/>
   <path class="fil40" d="M7398.44 8259.54l-481.78 0c-18.4,0 -34.57,-8.9 -43.98,-22.38 -2.15,-3.13 -3.98,-6.47 -5.36,-10.05 -2.09,-5.33 -3.23,-11.14 -3.23,-17.17l0 0 -0.72 -169.44 518.09 0 0.98 -227.31 70.25 0 2.44 -566.28 0 0 -4.14 963.03c0,27.4 -23.53,49.6 -52.55,49.6zm56.69 -1012.63l-0.23 -8.27 -70.1 0c-2.52,-191.47 -93.52,-351.91 -216.92,-401.52l0 -320.55c8.78,-1.93 15.51,-9.41 15.51,-18.76 0,-10.86 -8.82,-19.64 -19.65,-19.64l70.26 0c10.86,0 19.67,8.78 19.67,19.64 0,9.35 -6.72,16.83 -15.53,18.76l0 320.55 0 0c125.16,50.33 216.99,214.66 216.99,409.79z"/>
   <path class="fil41" d="M7452.69 7813.19l-70.25 0 2.43 -566.28c0,-2.74 0,-5.52 -0.07,-8.27l70.1 0 0.23 8.27 0 0 -2.44 566.28z"/>
   <path class="fil42" d="M6978.78 7906.88c-22.8,0 -41.34,-18.51 -41.34,-41.33l0 -52.36 82.66 0 0 52.36c0,22.82 -18.5,41.33 -41.32,41.33zm41.32 -668.24l-82.66 0 0 -56.49c0,-22.8 18.54,-41.3 41.34,-41.3 22.82,0 41.32,18.5 41.32,41.3l0 56.49z"/>
   <polygon class="fil43" points="6937.44,7813.19 7020.1,7813.19 7020.1,7238.64 6937.44,7238.64 "/>
   <path class="fil44" d="M2840.53 1315.48c0,-199.12 -96.79,-604.77 -628.96,-411.24 0,0 -3.03,-116.1 -66.59,-231.64 -163.63,125.33 -163.72,321.63 -163.72,321.63 0,0 -556.37,-92.05 -556.37,447.56 0,26.36 14.24,49.69 40.14,70.25 622.73,7.17 1375.5,-86.99 1375.5,-196.56z"/>
   <path class="fil45" d="M8061.03 1597.92c0,243.9 1623.12,138.56 1623.12,0 0,-147.57 -71.74,-448.34 -466.28,-304.89 0,0 -9,-349.76 -376.66,-340.77 -367.68,9.01 -367.68,313.87 -367.68,313.87 0,0 -412.5,-68.24 -412.5,331.79z"/>
   <path class="fil44" d="M9684.15 1597.92c0,-147.57 -71.74,-448.34 -466.28,-304.89 0,0 -2.31,-86.08 -49.39,-171.71 -121.31,92.86 -121.4,238.46 -121.4,238.46 0,0 -412.51,-68.24 -412.51,331.8 0,19.58 10.58,36.85 29.81,52.1 461.67,5.3 1019.77,-64.51 1019.77,-145.76z"/>
   <path class="fil30" d="M4513.82 6497.05c-73.29,1.02 -150.24,-18.28 -219.17,-57.37 -212.57,-120.53 -214.46,-477.05 -214.43,-492.14 0.03,-26.18 20.58,-48.34 47.39,-47.27 26.15,0 47.34,21.22 47.34,47.36 0,3.13 1.99,316.42 166.43,409.63 95.77,54.35 209.13,60.54 288.79,15.67 60.28,-33.92 93.35,-93.44 95.68,-172.18 4.16,-141.4 -184.56,-333.07 -257.62,-394.95 -19.96,-16.93 -22.46,-46.8 -5.54,-66.75 16.9,-19.99 46.8,-22.45 66.76,-5.53 12.15,10.3 297.44,254.57 291.06,469.97 -3.31,112.13 -54.4,201.62 -143.89,251.98 -47.96,26.99 -104.23,40.8 -162.8,41.58z"/>
   <path class="fil37" d="M4816.63 5107.28c0,0 -618.92,-107.99 -1401.17,-58.35 -782.23,-49.64 -1401.17,58.35 -1401.17,58.35 0,0 189.45,526.28 189.45,1042 0,515.72 -84.18,1894.53 210.51,2073.47 221.35,134.42 709.89,161.9 939.35,167.26l0.03 1.14c0,0 22.96,0.32 61.83,-0.06 38.87,0.38 61.86,0.06 61.86,0.06l0 -1.14c229.49,-5.36 717.99,-32.84 939.34,-167.26 294.73,-178.94 210.51,-1557.75 210.51,-2073.47 0,-515.72 189.46,-1042 189.46,-1042z"/>
   <path class="fil46" d="M2789.19 8340.76c-145.88,-25.01 -283.3,-62.33 -374.94,-118.01 -3.43,-2.07 -6.84,-4.35 -10.19,-6.75 3.35,2.4 6.76,4.68 10.19,6.75 91.64,55.68 229.06,93 374.94,118.01l0 0zm-385.17 -124.79c-0.25,-0.19 -0.53,-0.38 -0.78,-0.57 0.25,0.19 0.53,0.38 0.78,0.57zm-0.91 -0.7c-0.25,-0.15 -0.47,-0.31 -0.7,-0.5 0.25,0.19 0.45,0.35 0.7,0.5zm-0.89 -0.62c-0.22,-0.17 -0.41,-0.33 -0.63,-0.48 0.22,0.15 0.41,0.31 0.63,0.48zm-0.94 -0.7c-0.16,-0.13 -0.32,-0.25 -0.51,-0.38 0.19,0.13 0.35,0.25 0.51,0.38zm-0.95 -0.73c-0.09,-0.1 -0.22,-0.19 -0.34,-0.28 0.12,0.09 0.25,0.18 0.34,0.28zm-0.88 -0.7c-0.1,-0.06 -0.2,-0.15 -0.29,-0.21 0.09,0.06 0.19,0.15 0.29,0.21zm-0.95 -0.72c-0.03,-0.03 -0.1,-0.09 -0.12,-0.13 0.06,0.07 0.09,0.07 0.12,0.13zm-0.88 -0.73c-0.04,0 -0.04,-0.02 -0.04,-0.02l0.04 0.02z"/>
   <path class="fil47" d="M2145.36 5600.9c-109.35,-51.91 -152.11,-93.68 -152.11,-93.68l110.52 -93.59c-45.25,-182.89 -88.88,-304.7 -89.45,-306.32 0.76,2.12 75.65,210.93 131.04,493.59z"/>
   <path class="fil48" d="M3453.22 8391.27c-9.88,0 -22.61,-0.06 -37.76,-0.18 -15.13,0.12 -27.86,0.18 -37.76,0.18 -15.51,0 -24.07,-0.12 -24.07,-0.12l-0.03 -1.14c-134.45,-3.13 -357.91,-13.86 -564.41,-49.25 -145.88,-25.01 -283.3,-62.33 -374.94,-118.01 -3.43,-2.07 -6.84,-4.35 -10.19,-6.75 0,-0.03 -0.04,-0.03 -0.04,-0.03 -0.25,-0.19 -0.53,-0.38 -0.78,-0.57 -0.04,-0.03 -0.1,-0.07 -0.13,-0.13 -0.25,-0.15 -0.45,-0.31 -0.7,-0.5 -0.06,-0.03 -0.12,-0.1 -0.19,-0.12 -0.22,-0.17 -0.41,-0.33 -0.63,-0.48 -0.09,-0.06 -0.19,-0.16 -0.31,-0.22 -0.16,-0.13 -0.32,-0.25 -0.51,-0.38 -0.12,-0.12 -0.28,-0.25 -0.44,-0.35 -0.09,-0.1 -0.22,-0.19 -0.34,-0.28 -0.2,-0.13 -0.35,-0.28 -0.54,-0.42 -0.1,-0.06 -0.2,-0.15 -0.29,-0.21 -0.22,-0.16 -0.44,-0.35 -0.66,-0.51 -0.03,-0.06 -0.06,-0.06 -0.12,-0.13 -0.26,-0.18 -0.51,-0.41 -0.76,-0.6l-0.04 -0.02c-64,-51.32 -108.65,-163.22 -139.56,-310.9 299.62,94.95 619.29,139.12 894.22,139.12 390.24,-0.03 690.31,-89.01 714.5,-248.06 73.66,-484.15 399.96,-705.18 442.06,-842.06 42.12,-136.85 -10.52,-1220.91 -10.52,-1220.91 -379.5,50.18 -700.63,70.04 -971.4,70.04 -643.51,0 -1002.14,-112.31 -1181.52,-197.38 -55.39,-282.66 -130.28,-491.47 -131.04,-493.59 -0.03,0 -0.03,-0.03 -0.03,-0.03l0 0c0,0 409.22,-71.39 982.75,-71.39 131.78,0 272.28,3.76 418.42,13.04 146.19,-9.28 286.61,-13.04 418.44,-13.04 573.44,0 982.73,71.39 982.73,71.39 0,0 -122.54,340.45 -170.51,742.03 -5.27,44.02 -9.63,88.76 -12.82,133.88 -3.92,55.04 -6.13,110.64 -6.13,166.09l0 0 0 0c0,151.06 7.23,376.16 10.04,623.4 -114.83,139.31 -223.81,300.12 -305.33,478.43 -216.86,474.39 -285,806.86 71.04,979.66 -227.24,127.51 -700.76,154 -925.6,159.24l0 1.14c0,0 -8.56,0.12 -24.1,0.12z"/>
   <path class="fil49" d="M4639.8 5107.28c-240.95,-86.96 -706.63,-165.78 -1236.18,-165.78 -529.53,0 -985.36,78.82 -1220.09,165.78l-169.24 0 0 213.14c0,116.26 626.75,273.63 1399.84,273.63 773.13,0 1399.88,-157.37 1399.88,-273.63l0 -213.14 -174.21 0z"/>
   <path class="fil37" d="M4814.01 5107.28c0,116.26 -626.75,273.64 -1399.88,273.64 -773.09,0 -1399.84,-157.38 -1399.84,-273.64 0,-116.26 616.23,-284.18 1389.33,-284.18 773.13,0 1410.39,167.92 1410.39,284.18z"/>
   <path class="fil50" d="M4759.85 5170.31c-168.93,-105.69 -715.76,-220.91 -1356.23,-220.91 -639.42,0 -1171.12,114.84 -1336,220.37 166.43,103.16 706.03,211.15 1346.51,211.15 639.41,0 1178.31,-107.64 1345.72,-210.61z"/>
   <path class="fil30" d="M2279.4 5252.28c254.15,71.14 667.5,128.64 1134.73,128.64 464.95,0 876.57,-56.9 1131.07,-127.6 -257.21,-74.18 -674.39,-135.5 -1141.58,-135.5 -464.96,0 -872.78,60.76 -1124.22,134.46z"/>
   <path class="fil30" d="M2758.81 5898.47c-25.1,-7.1 -51.37,7.36 -58.58,32.52 -52.03,182.2 -145.31,414.43 -294.09,486.33 -61.13,29.49 -126.58,29.12 -200.07,-1.3l-6.06 -3.18c-34.32,-15.94 -56.86,-40.29 -67.82,-74.93 -27.98,-88.35 17.52,-224.41 67,-331.07 -3.6,-57.94 -9.18,-115.35 -16.17,-171.52 -37.03,61.22 -199.77,345.81 -141.17,531.07 20.31,64.26 63.38,110.39 128.01,137.14 9.41,3.91 18.79,7.1 28.13,10.25 39.03,13.18 77.23,20.09 114.37,20.09 46.73,0 91.85,-10.42 134.98,-31.26 144.82,-69.97 260.57,-253.52 343.99,-545.6 7.2,-25.13 -7.39,-51.37 -32.52,-58.54z"/>
   <path class="fil30" d="M2874.73 5937.44c0,58.88 -47.72,106.56 -106.58,106.56l-71.04 0c-58.82,0 -106.56,-47.68 -106.56,-106.56 0,-58.86 47.74,-106.57 106.56,-106.57l71.04 0c58.86,0 106.58,47.71 106.58,106.57z"/>
   <path class="fil37" d="M1350.94 6820.26c-71.76,184.69 -28.51,380.99 94.48,428.8 123.02,47.9 287.62,-67.76 359.3,-252.42 71.84,-184.65 28.54,-380.99 -94.47,-428.82 -123.02,-47.78 -287.53,67.75 -359.31,252.44zm538.87 209.41c-89.58,230.54 -296.81,357.88 -471.7,289.93 -174.97,-68.01 -241.84,-301.96 -152.23,-532.39 89.58,-230.54 296.84,-357.82 471.77,-289.9 174.9,68.01 241.81,301.93 152.16,532.36z"/>
   <path class="fil50" d="M1902.83 6859.01l349.92 -1026.72c0,0 -289.71,15.09 -594.61,799.56l-44.64 114.65 -121.73 313.3 -44.56 114.64c-304.98,784.57 -101.54,991.29 -101.54,991.29l435.37 -993.5 13.32 5.15 54.22 -159.17 67.48 -154.09 -13.23 -5.11z"/>
   <polygon class="fil49" points="1292.15,8181.02 1465.19,8248.24 2399.6,5844.32 2219.97,5774.45 "/>
   <polygon class="fil51" points="2189.76,5852.82 2219.97,5774.45 2189.76,5852.82 "/>
   <polygon class="fil52" points="2096.07,6095.85 2096.03,6095.82 2189.76,5852.82 2189.76,5852.82 "/>
   <polygon class="fil53" points="2274.81,6165.32 2096.07,6095.85 2189.76,5852.82 2219.97,5774.45 2399.6,5844.32 "/>
   <polygon class="fil51" points="2210.91,6329.79 2210.91,6329.79 2233.43,6271.88 "/>
   <polygon class="fil52" points="2032.6,6260.49 2032.13,6260.29 2070.78,6158.21 2071.85,6158.62 "/>
   <polygon class="fil53" points="2210.91,6329.79 2032.6,6260.49 2071.85,6158.62 2250.44,6228 2233.43,6271.88 "/>
   <polygon class="fil54" points="1509.71,8133.71 1553.44,8021.18 1553.47,8021.18 1509.71,8133.71 "/>
   <polygon class="fil55" points="1465.19,8248.24 1296.95,8182.88 1296.95,8182.88 1465.19,8248.24 1509.71,8133.71 1509.71,8133.71 "/>
   <polygon class="fil53" points="1465.19,8248.24 1296.95,8182.88 1292.15,8181.02 1379.83,7953.7 1553.44,8021.18 1509.71,8133.71 "/>
   <polygon class="fil52" points="1434.24,7812.46 1429.47,7810.63 1468.15,7708.58 1473.48,7710.66 "/>
   <polygon class="fil53" points="1608.23,7880.2 1434.24,7812.46 1473.48,7710.66 1647.79,7778.36 "/>
   <path class="fil25" d="M3562.95 7103.94c4.99,12.34 3.47,22.2 4.29,31.73 0.83,9.16 1.08,18.35 1.64,27.53 0.64,9.67 1.36,19.36 1.93,27.61 5.46,5.54 10.83,4.51 15.88,4.32 36.73,-1.8 73.48,-3.29 110.17,-5.72 33.82,-2.24 67.64,-5.08 101.33,-8.46 27.44,-2.78 54.66,-6.92 81.05,-15.56 28.23,-9.22 50.74,-26.31 69.72,-48.61 5.47,-6.4 10.51,-13.16 16.55,-20.73 1.42,7.17 -1.99,11.43 -4.3,15.75 -7.36,13.61 -14.96,27.15 -22.73,40.57 -51.22,88.54 -102.47,177.05 -153.87,265.49 -4.9,8.4 -10.36,16.54 -16.29,24.25 -9.95,12.85 -23.52,19.99 -39.44,22.55 -6.26,0.97 -12.57,1.51 -18.88,1.98 -40.1,2.79 -80.27,5.47 -120.37,8.21 -19.83,1.4 -22.58,0.35 -20.28,23.27 1.96,19.39 2.31,38.97 3.33,58.17 -5.31,2.68 -6.57,-1.67 -8.35,-3.98 -18.46,-24.25 -36.75,-48.53 -55.1,-72.87 -30.49,-40.33 -60.99,-80.61 -91.44,-121.07 -4.44,-5.87 -8.53,-12.06 -13.01,-18.47 2.02,-4.1 3.41,-7.86 5.59,-11.05 38.72,-57.75 77.49,-115.44 116.26,-173.13 7.05,-10.54 14.09,-21.03 21.1,-31.52 4.07,-6.14 8.21,-12.28 15.22,-20.26z"/>
   <path class="fil25" d="M2955.93 7413.6l-5.52 -5.34c-5.33,-8.21 -10.55,-16.45 -15.54,-24.85 -51.81,-86.76 -103.63,-173.63 -155.38,-260.43 -7.04,-11.84 -13.58,-23.97 -20.49,-35.9 -12.22,-21.06 -12.35,-42.57 -2.37,-64.36 9.79,-21.37 19.83,-42.68 29.71,-64.09 10.1,-21.89 20.27,-43.77 30.23,-65.74 3.15,-6.92 2.01,-10.77 -4.81,-14.06 -17.05,-8.27 -34.38,-16 -51.53,-24.06 -3.98,-1.86 -7.71,-4.26 -12.5,-6.92l5.43 -3.28c10.73,-2.05 21.41,-4.2 32.2,-5.75 36.38,-5.27 72.75,-10.25 109.16,-15.37 35.78,-4.99 71.58,-10.07 107.39,-15.03 5.63,-0.75 11.37,-0.85 17.78,-1.29 2.55,4.01 5.3,7.63 7.36,11.58 18.91,36.79 37.79,73.58 56.55,110.45 19.04,37.3 37.95,74.78 56.83,112.16 2.56,5.09 4.8,10.27 7.05,15 -3.16,3.79 -5.81,2.24 -8.34,1.08 -18.63,-8.94 -37.19,-18.07 -55.95,-26.78 -5.59,-2.65 -10.86,-6.57 -18.85,-6.35 -2.34,3.89 -5.34,8.02 -7.52,12.54 -27.76,58.64 -55.95,117.15 -82.86,176.19 -12.31,27.09 -23.26,54.88 -30.02,84.21 -7.36,31.8 -5.82,62.62 5.96,93.06 2.85,7.32 5.37,14.71 8.08,22.06l-2.05 1.27z"/>
   <path class="fil25" d="M3679.9 6714.98c-91.53,-4.92 -182.72,-9.88 -273.91,-14.9 -1.52,-0.06 -2.97,-1.16 -5.88,-2.36l6.07 -6.32c17.9,-12.47 35.96,-24.85 53.9,-37.23 4.22,-2.93 9.05,-5.24 10.44,-12.28 -1.7,-3.13 -3.53,-7.27 -6.06,-10.99 -34.1,-49.79 -67.73,-99.93 -102.68,-149.13 -16.64,-23.4 -35.3,-45.37 -53.96,-67.16 -29.08,-33.91 -66.76,-51.75 -111.06,-55.82l-7.73 -1.9c1.54,-4.9 4.89,-4.07 7.35,-4.2 18.98,-0.7 37.96,-1.3 56.94,-1.77 21.81,-0.54 43.67,-1.17 65.52,-1.42 43.69,-0.47 87.36,-0.63 131.07,-1.17 33.34,-0.41 66.68,-1.14 100.06,-1.64 8.59,-0.16 17.24,-0.16 25.83,0.34 17.43,1.08 32.39,7.75 43.51,21.48 7.93,9.79 15.56,19.96 22.79,30.31 21.16,30.09 42,60.4 63,90.59l5.37 6.72c2.65,2.75 6.06,3.55 9.44,1.71 4.01,-2.17 7.9,-4.67 11.65,-7.32 13.61,-9.63 27.15,-19.3 40.79,-28.89 2.66,-1.87 5.69,-3.26 8.6,-4.84l1.67 3.89c-7.77,23.58 -96.27,243.35 -102.72,254.3z"/>
   <path class="fil25" d="M2906.39 6676.68c2.69,-5.11 4.68,-9.18 6.92,-13.16 39.72,-71.23 79.47,-142.44 119.26,-213.67 5.87,-10.55 12.07,-20.91 17.81,-31.45 9.97,-18.25 25.36,-29.37 45.18,-34.61 60.5,-16.04 115.04,-4.48 162.43,36.59 31.92,27.67 55.92,62.15 79.63,95.43 0.07,8.24 -4.48,13.04 -7.73,18.31 -34.61,56.27 -69.31,112.47 -104.01,168.68 -19.93,32.27 -39.85,64.54 -59.84,96.71 -2.37,3.86 -5.12,7.52 -8.24,12.07 -3.44,-1.24 -6.7,-2.02 -9.57,-3.54 -64.86,-34.64 -129.68,-69.34 -194.51,-104.01 -9.63,-5.11 -19.45,-9.88 -29.01,-15.12 -5.94,-3.26 -12.51,-5.75 -18.32,-12.23z"/>
   <path class="fil25" d="M3705.48 7146.56c-51.22,-99.24 -101.49,-198.64 -152.04,-297.88 -1.26,-2.46 -1.61,-5.4 -2.62,-9.03 3.67,-2.88 6.95,-5.94 10.77,-8.25 25,-15.21 50.15,-30.24 75.28,-45.37 47.27,-28.38 94.56,-56.73 141.89,-85.06 4.33,-2.63 8.91,-4.77 12.79,-6.85 6.95,3 9.1,8.65 11.82,13.51 37.89,66.97 75.62,134.07 113.38,201.13 8.46,15.07 16.87,30.1 25.17,45.2 8.71,15.87 10.73,32.55 5.55,50.01 -1.45,4.92 -2.42,10.07 -4.26,14.87 -20.27,53.59 -55.92,91.7 -111.42,109.31 -9.29,2.97 -18.73,5.53 -28.3,7.33 -27.66,5.15 -55.35,10.2 -83.55,11.27 -4.55,0.19 -9.06,-0.09 -14.46,-0.19z"/>
   <path class="fil25" d="M3032.41 7184.65c19.14,-0.51 37.48,-1.71 55.8,-1.3 31.57,0.7 63.15,2.52 94.72,3.66 51.09,1.86 102.22,3.6 153.33,5.34 7.46,0.19 14.94,0.25 22.42,0.34 5.69,0.1 11.47,-0.15 16.42,2.56 3.95,5.56 2.85,11.47 3.07,17.05 1.58,45.98 3.03,91.95 4.55,137.92 1.2,35.63 2.46,71.21 3.5,106.86 0.18,6.79 1.51,13.76 -1.7,21.5 -3.26,0.69 -7.02,2.05 -10.81,2.15 -13.79,0.41 -27.59,0.38 -41.39,0.54 -75.31,0.98 -150.59,1.95 -225.89,2.87 -5.18,0.07 -10.36,-0.03 -15.54,0.16 -19.48,0.63 -35.93,-6.41 -49.92,-19.68 -32.71,-30.9 -50.96,-68.8 -55.61,-113.51 -2.71,-26.33 1.84,-51.81 10.4,-76.29 9.63,-27.65 20.87,-54.72 31.56,-82.03 1.2,-3.09 3.55,-5.72 5.09,-8.14z"/>
   <path class="fil25" d="M7239.78 530.6l-5.53 2.69c-8.87,5.46 -17.68,11.02 -26.55,16.51l-7.52 4.14 -5.84 -1.42 -3.09 -4.39c-11.97,-19.61 -23.88,-39.31 -35.94,-58.85 -4.16,-6.76 -8.52,-13.33 -13.1,-19.78 -2.56,-3.56 -17.81,-23.68 -33.76,-48.18 -22.01,-33.97 -225.03,-56.87 -254.52,-20.14 -14.34,11.59 -29.27,33.02 -61.33,70.85 -4.83,5.72 -15.43,20.08 -19.44,26.47 -27.51,42.93 -54.95,85.88 -82.39,128.86 -1.52,2.4 -2.9,4.86 -4.79,7.92 3.41,4.29 7.42,6.09 10.98,8.33 5.78,3.63 11.75,6.98 17.56,10.52 39.15,24.06 78.31,48.12 117.49,72.12l5.84 2.55 5.59 -7.23c13.64,-19.32 27.29,-38.71 40.89,-58.1 23.75,-33.75 47.49,-67.57 71.18,-101.38 1.57,-2.25 16.41,-16.33 25.03,-26.18 18.79,30.31 36.95,61.01 55.32,91.54l3.35 7.1c-1.11,4.33 -4.2,5.62 -6.94,7.3 -11.66,7.04 -23.37,14.08 -34.99,21.18l-4.05 3.73 3.57 1.71c56.74,6.49 113.45,12.98 170.35,19.47 4.42,-6.62 67.79,-140.44 73.55,-154.87l-0.92 -2.47z"/>
   <path class="fil25" d="M7106.69 1223.31l0.38 -6.15c-0.42,-10.4 -0.95,-20.81 -1.43,-31.23 -0.12,-2.88 -0.12,-5.75 0.07,-8.6l4.1 -4.38 5.37 -0.54c22.95,-0.85 45.95,-1.57 68.9,-2.56 7.89,-0.31 15.79,-0.88 23.65,-1.73 4.35,-0.51 29.36,-3.98 58.58,-5.84 40.35,-2.6 159.67,-168.46 142.09,-212.13 -3.07,-18.19 -14.47,-41.68 -31.77,-88.16 -2.59,-6.98 -9.95,-23.27 -13.58,-29.93 -23.97,-44.96 -48,-89.93 -72.06,-134.86 -1.29,-2.53 -2.81,-4.96 -4.57,-8.08 -5.41,0.88 -8.91,3.47 -12.63,5.49 -5.97,3.25 -11.82,6.82 -17.71,10.17 -40.2,22.38 -80.31,44.74 -120.43,67.16l-5.09 3.85c1.33,3.15 2.34,5.84 3.56,8.43 10.17,21.34 20.4,42.73 30.67,64.1 17.84,37.2 35.68,74.45 53.55,111.65 1.23,2.5 6.25,22.3 10.58,34.64 -35.62,1.58 -71.27,2.37 -106.89,3.47l-7.83 -0.56c-3.25,-3.06 -2.81,-6.38 -2.94,-9.63 -0.43,-13.62 -0.88,-27.28 -1.38,-40.9l-1.27 -5.33 -3.22 2.31c-33.44,46.25 -66.84,92.55 -100.38,138.99 3.64,7.11 89.3,127.88 99.08,139.91l2.6 0.44z"/>
   <path class="fil25" d="M6555.5 762.4l5.3 3.13c9.48,4.32 19.01,8.55 28.48,12.85l7.65 3.95 2.08 5.62 -1.96 5.05c-9.63,20.84 -19.38,41.71 -28.89,62.61 -3.31,7.2 -6.35,14.5 -9.12,21.89 -1.55,4.1 -9.73,27.97 -21.29,54.87 -15.91,37.17 78.06,218.61 124.98,222.64 17.59,5.47 43.73,5.94 92.96,11.53 7.45,0.85 25.3,1.61 32.87,1.45 50.94,-1.07 101.93,-2.17 152.86,-3.31 2.84,-0.04 5.72,-0.29 9.28,-0.45 1.67,-5.21 0.95,-9.53 0.82,-13.73 -0.22,-6.82 -0.76,-13.64 -1.07,-20.43 -1.8,-45.95 -3.56,-91.82 -5.43,-137.76l-1.14 -6.29c-3.41,-0.22 -6.28,-0.53 -9.16,-0.59 -23.61,-0.6 -47.33,-1.14 -71.04,-1.68 -41.21,-0.92 -82.51,-1.8 -123.78,-2.68 -2.74,-0.04 -22.7,-4.52 -35.67,-6.22 14.68,-32.5 30.09,-64.61 45.24,-96.91l4.04 -6.76c4.17,-1.45 6.95,0.38 9.89,1.74 12.34,5.78 24.75,11.59 37.1,17.27l5.33 1.29 -0.57 -3.95c-26.17,-50.7 -52.35,-101.44 -78.65,-152.35 -7.93,0 -154.38,21.85 -169.56,25.14l-1.55 2.08z"/>
   <path class="fil11" d="M5320.16 6276.31c-43.19,-5.62 -253.7,-350.34 -229.52,-446.96 24.16,-96.68 181.22,48.31 265.77,12.03 84.57,-36.22 277.87,-217.43 338.24,-108.71 60.44,108.71 -181.17,531.57 -181.17,531.57 0,0 -54.38,30.19 -193.32,12.07z"/>
   <path class="fil11" d="M5274.16 6194.05c-15.22,9.79 -652.32,422.83 -942.28,1057.06 -289.93,634.23 -314.06,1014.75 585.92,1099.31 900,84.55 1810.26,26.68 1703.38,-658.38 -132.9,-851.69 -1008.75,-1715.42 -1347.02,-1497.99z"/>
   <path class="fil37" d="M5213.69 6153.19c0,0 70.26,-43.03 215.19,-40 114.9,2.36 193.31,54.37 175.19,102.71 -8.21,21.92 -38.38,12.91 -92.8,3.92 -65.59,-10.83 -166.38,-21.66 -306.52,21.47 0,0 -52.19,-24.66 8.94,-88.1z"/>
   <path class="fil22" d="M4880.41 6847.95c-45.59,0 -89.29,-43.54 -55.13,-88.63 93.3,-123.21 205.78,-225.2 322.01,-326.31 13.1,-11.39 27.53,-16.19 41.55,-16.19 50.43,0 94.82,62.49 47.18,103.98 -107.14,93.15 -216.33,186.9 -302.47,300.6 -14.24,18.76 -33.84,26.55 -53.14,26.55z"/>
   <path class="fil22" d="M4774.82 7007.32c-5.62,0 -11.56,-0.8 -17.78,-2.5 -71.36,-19.55 -50.9,-123.4 13.27,-123.4 5.58,0 11.52,0.8 17.74,2.5 71.36,19.57 50.9,123.43 -13.23,123.4z"/>
   <path class="fil25" d="M5864.46 7408.99l66.53 -56.37c0,0 -157.8,-163.34 -339.65,-78.14 0,0 -28.3,71.42 -17.65,156.8l-2.44 1.36c-25.38,17.74 -54.87,30.18 -86.86,38.11 -12.25,-49.54 -32.14,-98.35 -50.02,-141.84 -7.67,-18.6 -38.07,-9.98 -30.31,8.87 16.89,41.12 37.87,89.65 50.43,138.97 -41.62,6.53 -86.49,5.84 -131.64,0.47 0.19,-39.49 -8.27,-79.73 -26.94,-120.45 -8.49,-18.48 -35.42,-2 -27.03,16.31 15.64,34.11 23.06,67.52 23.27,100.17 -47.39,-8.06 -94.22,-21.6 -137.41,-38.85 12.1,-28.41 17.21,-59.07 11.24,-89.7 -3.91,-19.96 -34.19,-10.99 -30.31,8.87 4.51,23.25 0.22,46.73 -9.35,68.72 -26.9,-12.32 -52,-25.96 -74.1,-40.74 9.59,-66.28 18.4,-231.7 -111.59,-326.43 0,0 -81.09,155.04 -22.33,275.37 0,0 -201.52,46.39 -193.11,200.29 0,0 188.6,54.47 301.73,-91.17 19.86,12.61 41.46,24.32 64.13,35.18 -14.81,16.05 -31.57,29.9 -48.4,39.79 -17.56,10.29 -1.24,37.29 16.39,27 22.7,-13.33 44.14,-31.83 62.11,-53.27 50.86,21.44 106.34,38.04 162.45,47.59 -8.97,32.51 -24.72,64.22 -46.54,94.94 -11.81,16.64 15.88,31.92 27.5,15.51 24.31,-34.29 41.27,-69.79 50.53,-106.17 51.05,6.22 102.02,6.86 149.78,-0.87 2.98,45.14 -5.62,88.6 -35.96,125.16 -12.91,15.57 9.69,37.64 22.71,21.95 37.79,-45.53 47.87,-98.58 43.51,-153.02 33.85,-8.12 65.74,-20.53 94.28,-38.01 18.63,49.09 53.99,98.19 117.85,137.63 0,0 186.42,-99.91 243.98,-221.29l-86.78 -2.74z"/>
   <path class="fil56" d="M5730.02 7359.67c0,26.3 -21.35,47.65 -47.68,47.65 -26.33,0 -47.65,-21.35 -47.65,-47.65 0,-26.31 21.32,-47.65 47.65,-47.65 26.33,0 47.68,21.34 47.68,47.65z"/>
   <path class="fil57" d="M6621.91 7696.84c0,-0.1 -0.04,-0.23 -0.04,-0.29 0,0.06 0.04,0.22 0.04,0.29zm-1.26 -8.18c-0.04,-0.23 -0.08,-0.42 -0.1,-0.64 0.02,0.22 0.06,0.45 0.1,0.64zm-0.64 -3.89c0,-0.16 -0.06,-0.41 -0.1,-0.56 0.04,0.18 0.06,0.37 0.1,0.56zm-0.63 -4.01l0 0 0 0zm-0.57 -3.44c-0.03,-0.16 -0.06,-0.32 -0.1,-0.47 0.04,0.15 0.07,0.31 0.1,0.47zm-0.66 -3.85c-0.04,-0.16 -0.04,-0.32 -0.06,-0.48 0.02,0.16 0.02,0.32 0.06,0.48zm-0.66 -3.95c0,-0.06 0,-0.03 0,-0.06l0 0.06zm-0.64 -3.63c0,-0.07 -0.03,-0.16 -0.03,-0.22 0.03,0.09 0.03,0.13 0.03,0.22zm-0.63 -3.67c-0.03,-0.15 -0.06,-0.34 -0.09,-0.5 0.03,0.16 0.06,0.35 0.09,0.5zm-0.69 -3.97l-0.03 -0.1c0,0.06 0,0.06 0.03,0.1zm-0.67 -3.7c-0.03,-0.06 -0.03,-0.06 -0.03,-0.12 0,0.03 0,0.1 0.03,0.12zm-0.69 -3.63c0,-0.13 -0.03,-0.28 -0.07,-0.38 0.04,0.13 0.07,0.23 0.07,0.38zm-0.73 -3.95l0 -0.06 0 0.06zm-1.39 -7.42c0,-0.06 -0.03,-0.12 -0.03,-0.19 0,0.1 0.03,0.1 0.03,0.19zm-0.72 -3.85l-0.04 -0.03 0.04 0.03zm-1.49 -7.45c0,-0.03 0,-0.06 -0.02,-0.13 0.02,0.04 0.02,0.1 0.02,0.13zm-0.76 -3.79c0,-0.06 0,-0.06 0,-0.1 0,0.04 0,0.07 0,0.1zm-1.51 -7.54l0 0 0 0zm-0.79 -3.76l0 0 0 0zm-2.4 -11.24l0 -0.03 0 0.03z"/>
   <path class="fil24" d="M5494.28 8380.36c-53.15,0 -107.11,-0.95 -161.64,-2.72 1011.27,-15.09 1070.67,-828.55 1070.67,-828.55 -118.57,355.77 -419.01,379.48 -496.97,379.48 -12,0 -18.76,-0.57 -18.76,-0.57 0,0 463.13,-242.06 389.43,-652.54 -73.68,-410.49 -672.94,-1059.56 -672.94,-1059.56l0.5 -1.1c377.24,179.79 868.04,776.54 999.81,1387.09l0 0.03c0.82,3.75 1.61,7.48 2.4,11.24l0 0c0.25,1.26 0.5,2.49 0.79,3.76l0 0c0.5,2.49 1.01,4.98 1.51,7.44 0,0.04 0,0.04 0,0.1 0.26,1.26 0.51,2.4 0.74,3.66 0.02,0.07 0.02,0.1 0.02,0.13 0.5,2.47 0.98,4.96 1.45,7.42l0.04 0.03c0.22,1.2 0.47,2.46 0.69,3.66 0,0.07 0.03,0.13 0.03,0.19 0.48,2.47 0.95,4.9 1.39,7.36l0 0.06c0.22,1.17 0.45,2.37 0.66,3.57 0.04,0.1 0.07,0.25 0.07,0.38 0.22,1.17 0.44,2.34 0.66,3.51 0,0.06 0,0.06 0.03,0.12 0.19,1.18 0.44,2.44 0.64,3.6l0.03 0.1c0.18,1.16 0.41,2.3 0.6,3.47 0.03,0.16 0.06,0.35 0.09,0.5 0.19,1.14 0.42,2.31 0.6,3.45 0,0.06 0.03,0.15 0.03,0.22 0.22,1.2 0.41,2.34 0.64,3.57 0,0.03 0,0 0,0.06 0.18,1.17 0.41,2.31 0.6,3.47 0.02,0.16 0.02,0.32 0.06,0.48 0.19,1.13 0.37,2.24 0.56,3.38 0.04,0.15 0.07,0.31 0.1,0.47 0.19,1.14 0.38,2.3 0.57,3.44l0 0c0.19,1.14 0.38,2.31 0.53,3.45 0.04,0.15 0.1,0.4 0.1,0.56 0.19,1.11 0.35,2.18 0.54,3.25 0.02,0.22 0.06,0.41 0.1,0.64 0.18,1.13 0.34,2.24 0.53,3.38 0.22,1.51 0.47,3 0.69,4.51 0,0.06 0.04,0.19 0.04,0.29 79.76,532.65 -459.15,683.54 -1127.63,683.52z"/>
   <path class="fil58" d="M8066.15 5730.24c-18.51,-8.06 -34.17,19.41 -15.5,27.5 141.76,61.44 304.76,97.32 424.66,199.72 94.31,80.57 10.25,159.08 -71.3,206.09 -111.03,63.94 -262.18,74.99 -384.98,107.07 -133.37,34.86 -369.05,134.07 -275.37,309.07 52.67,98.42 178.81,154.43 280.99,181.08 123.31,32.12 256.08,19.01 381.34,9.41 20.21,-1.51 19.84,-33.09 -0.5,-31.58 -133.22,10.21 -266.18,19.43 -396.94,-14.67 -126.94,-33.1 -350.11,-178.16 -206.53,-315.89 173.94,-166.91 463.81,-111.52 657.09,-241.68 310.29,-208.84 -255.27,-376.41 -392.96,-436.12z"/>
   <path class="fil37" d="M7797.31 5632.61c0,0 -155.01,31.38 -162.87,83.42 -7.89,52 50.99,126.87 77.8,121.19 26.84,-5.75 87.85,-183.71 85.07,-204.61z"/>
   <path class="fil37" d="M7790.01 5617.67c0,0 -49.6,-148.63 -4.48,-175.59 68.8,-41.08 105.03,70.82 105.03,70.82 -0.23,29.74 -100.55,104.77 -100.55,104.77z"/>
   <path class="fil11" d="M7719.95 5633.46c0,0 143.29,118.75 197.31,62.7 54.07,-56.11 -83.73,-118.28 -137.32,-121.71 -53.52,-3.41 -123.42,-2.56 -59.99,59.01z"/>
   <path class="fil26" d="M59.27 8056.32c196.98,-12.41 395.11,-50.58 582.71,-80.92 295.29,-47.84 576.95,-79.67 876.54,-78.75 364.19,1.14 715.66,-28.83 1034.13,-213.68 74.21,-43.07 125.45,-58.82 135.47,-141.78 27.46,-228.22 -56.53,-516.28 -197.17,-694.25 -109.22,-138.2 -200.09,-203.1 -379.06,-180.2 -65.65,8.4 -143.07,2.94 -205.63,19.8 -27.43,7.38 -50.23,27.53 -77.58,32.68 -16.42,-237.89 -42.06,-493.78 -263.68,-630.5 -152.67,-94.16 -331.45,-118.76 -500.48,-95.96 26.94,-127.64 -15.56,-222.05 -123.36,-296.94 -49.58,-34.48 -115.76,-34.45 -176.32,-34.45 -58.11,0 -111.02,0.03 -139.22,-30.37 -49.48,-53.31 -51.85,-158.2 -98.96,-218.98 -53.02,-68.49 -123.33,-122.49 -208.53,-144.4 -76.69,-19.7 -176.06,-17.4 -258.86,7.36l0 2781.34z"/>
   <path class="fil27" d="M2035.29 7862.32c-33.03,-142.81 -94.99,-281.56 -175.85,-383.86 -109.22,-138.21 -200.1,-203.1 -379.06,-180.2 -65.66,8.39 -143.04,2.93 -205.63,19.8 -27.44,7.38 -50.23,27.53 -77.58,32.67 -16.42,-237.89 -42.06,-493.78 -263.69,-630.5 -152.66,-94.16 -331.45,-118.76 -500.47,-95.96 26.93,-127.63 -15.57,-222.04 -123.37,-296.94 -71.17,-49.48 -176.44,-28.04 -250.37,-37.41l0 1766.4c196.98,-12.41 395.11,-50.58 582.71,-80.92 295.29,-47.84 576.95,-79.67 876.54,-78.75 176,0.53 348.97,-6.38 516.77,-34.33z"/>
   <path class="fil11" d="M539.32 8468.48c0.73,-382.45 -238.86,-578.12 -480.05,-613.64l0 1246.83 1462.22 0c2.9,-19.4 5.77,-38.75 8.64,-58 63.16,-421 -535.77,-1031.36 -990.81,-575.19z"/>
   <path class="fil24" d="M822.28 9101.67l-763.01 0 0 -412.13c57.98,-24.19 116.46,-35.18 174.12,-35.18 252.95,0 489.48,211.66 588.89,447.31z"/>
   <path class="fil26" d="M704.56 5536.14c0,0 -130.25,-224.98 -15.79,-382.86 0,0 163.81,179.61 15.79,382.86z"/>
   <path class="fil11" d="M641.4 8072.71c0,0 -130.25,-224.98 -15.78,-382.86 0,0 163.82,179.61 15.78,382.86z"/>
   <path class="fil26" d="M765.75 5546.03c0,0 130.25,-234.87 420.34,-193.41 0,0 -102.63,272.34 -420.34,193.41z"/>
   <path class="fil11" d="M671.03 8156.29c0,0 130.25,-234.86 420.33,-193.4 0,0 -102.62,272.34 -420.33,193.4z"/>
   <path class="fil45" d="M651.29 1315.48c0,328.96 2189.24,186.87 2189.24,0 0,-199.12 -96.79,-604.77 -628.96,-411.24 0,0 -12.09,-471.74 -507.99,-459.65 -495.93,12.12 -495.93,423.34 -495.93,423.34 0,0 -556.36,-92.05 -556.36,447.55z"/>
   <path class="fil58" d="M1729.88 4628.34c-241.58,-15.35 -490.21,35.65 -726.33,-36.37 -138.18,-42.13 -219.96,-144.49 -230.57,-288.26 -13.51,-183.67 135.21,-303.98 276.35,-389.36 175.78,-106.29 563.6,-282.38 449.67,-548.88 -49.57,-115.95 -168.39,-180.8 -267.64,-247.87 -56.32,-38.11 -112.75,-79.95 -153.11,-135.49 -62.87,-86.61 -1.26,-164.96 70.64,-219.01 16.1,-12.09 -0.06,-39.25 -16.35,-26.99 -90.4,67.94 -148.79,156.58 -81.28,262.36 68.8,107.76 202.17,164.22 300.79,239.18 423.62,322.17 -262.68,581.09 -464.61,752.48 -203.94,173.04 -195.1,501.93 61.55,615.13 241.65,106.6 526.97,38.52 781.37,54.66 20.33,1.29 19.7,-30.29 -0.48,-31.58z"/>
   <path class="fil59" d="M59.27 9101.67l0 0 0 -4684.26c432.97,-215.69 1109.38,-450.39 2005.06,-450.39 162.11,0 331.49,7.7 507.8,24.57 691.2,66.18 1241.06,304.42 1792.37,555.98 -31.83,144.49 -61.45,315.09 -78.97,502.85 -132.75,-8.53 -285.26,-14.53 -451.63,-14.53 -131.83,0 -272.25,3.76 -418.44,13.04 -146.14,-9.28 -286.64,-13.04 -418.42,-13.04 -573.53,0 -982.75,71.39 -982.75,71.39l0 0 0 0 0 0c0,0 0,0.03 0.03,0.03 0.57,1.62 44.2,123.43 89.45,306.32l-110.52 93.59c0,0 42.76,41.77 152.11,93.68 15.66,79.8 29.71,165.43 40.13,254.03 -0.03,0 -0.07,0.03 -0.09,0.03 -0.76,-6.56 -1.55,-13.11 -2.38,-19.64 -4.38,7.27 -10.54,17.65 -17.87,30.63 -87.72,51.03 -232.2,179.19 -391.16,500.69 -36.11,-111.05 -97.94,-209.44 -208.99,-277.92 -117.79,-72.66 -251.16,-103.89 -383.56,-103.89 -39.21,0 -78.3,2.72 -116.92,7.93 26.94,-127.64 -15.56,-222.05 -123.36,-296.94 -48.69,-33.88 -113.42,-34.45 -173.13,-34.45 -1.08,0 -2.15,0 -3.19,0 -1.11,0 -2.18,0 -3.26,0 -56.8,0 -108.27,-0.53 -135.96,-30.37 -49.48,-53.31 -51.85,-158.2 -98.96,-218.98 -53.02,-68.49 -123.33,-122.49 -208.53,-144.4 -34.16,-8.78 -72.84,-13.19 -112.56,-13.19 -49.39,0 -100.38,6.82 -146.3,20.55l0 2781.34 0 0 0 0 0 1045.35zm11078.37 -1780.46c0,-0.5 -0.32,-1.01 -0.32,-1.52 0,0.51 0.32,1.02 0.32,1.52zm-0.63 -2.97c-4.74,-21.38 -9.47,-42.65 -14.21,-63.84l-3667.71 0 0.04 -7.49 0 0c0,-195.13 -91.83,-359.46 -216.99,-409.79l0 -320.55c8.81,-1.93 15.53,-9.41 15.53,-18.76l0 0 0 0c0,-10.86 -8.81,-19.64 -19.67,-19.64l-152.92 0c-10.83,0 -19.61,8.78 -19.61,19.64 0,9.35 6.7,16.83 15.47,18.76l0 320.55c-15.34,6.19 -30.18,14.06 -44.4,23.5 0.23,-35.11 0.35,-55.14 0.35,-55.14l0 0 0 0c0,0 -210.48,-550.71 -255.95,-648.72l0 -71.99 0 0c0,-3.79 -0.63,-6.82 -1.16,-10.04 8.11,-2.02 14.36,-10.36 14.36,-20.85l0 0 0 0c0,-11.99 -7.95,-21.72 -17.77,-21.72l-165.78 0c-9.79,0 -17.75,9.73 -17.75,21.72 0,11.06 6.86,19.8 15.61,21.16 -0.51,3.13 -1.14,6.06 -1.14,9.73l0 74.77c-48.06,105.37 -254.66,645.94 -254.66,645.94 0,0 0.44,66.6 1.11,169.91 -123.94,-208.49 -275.41,-394.47 -428.58,-536 47.8,-446.13 89.39,-943.54 83.96,-1286.52 285.51,59.62 594.82,95.46 938.65,95.46 420.96,-0.03 893.9,-53.71 1438.27,-183.17 300.26,-71.37 580.1,-118.35 841.18,-145.66 136.81,199.18 330.91,366.15 625.36,479.76 0.02,0.03 0.06,0.03 0.08,0.07 1.14,0.4 2.22,0.85 3.35,1.26 0.1,0.03 0.16,0.06 0.23,0.09 1.13,0.45 2.21,0.86 3.34,1.26l0 0 0 0c0.76,0.32 1.55,0.6 2.3,0.89 0.33,0.12 0.7,0.28 1.02,0.41 0.41,0.16 0.88,0.31 1.29,0.47 0.41,0.19 0.76,0.32 1.17,0.48 0.38,0.12 0.76,0.28 1.13,0.44 0.45,0.16 0.86,0.32 1.3,0.51 0.31,0.12 0.66,0.25 0.98,0.37 0.44,0.19 0.92,0.35 1.36,0.54 0.31,0.12 0.63,0.25 0.91,0.38 0.51,0.18 0.95,0.34 1.46,0.57 0.31,0.12 0.5,0.19 0.79,0.31 0.56,0.23 0.97,0.38 1.55,0.6 0.18,0.1 0.43,0.19 0.62,0.25 0.6,0.26 1.14,0.48 1.74,0.7 0.03,0.03 0.13,0.06 0.16,0.1 4.39,1.76 8.68,3.53 13.04,5.36 0.06,0.04 0.06,0.04 0.1,0.06 0.75,0.32 1.45,0.6 2.17,0.92l0 0c516.39,219.36 1050.34,973.83 1248.32,1902.94zm-9058.31 -648.31l68.74 -176.89c7.17,3.76 14.62,7.26 22.42,10.49 9.41,3.91 18.79,7.1 28.13,10.25 -0.98,47.88 -1.92,97.7 -2.75,148.79 -5.52,-0.22 -11.17,-0.34 -16.89,-0.34 -20.81,0 -42.84,1.48 -66.46,4.51 -10.8,1.39 -21.89,2.37 -33.19,3.19zm121.35 -257.09l-0.04 0c-6.28,-2.9 -12.15,-6.12 -17.65,-9.63l18.83 -48.43c-0.35,18.91 -0.77,38.26 -1.14,58.06zm2816.83 -22.99c29.05,-486.64 57.53,-1023.81 81.78,-1360.02 0,0 22.92,4.04 55.01,4.04 16.04,0 34.35,-1.02 53.27,-4.04 0,0 31.95,530.65 73.88,1098.45 -44.99,11.37 -67.13,24.91 -67.13,24.91 -61.13,63.44 -8.94,88.1 -8.94,88.1 0.64,-0.19 1.27,-0.38 1.9,-0.57 -46.07,33.21 -112.54,83.55 -189.77,149.13z"/>
  </g>
 </g>
</svg>
